<svg xmlns="http://www.w3.org/2000/svg" xmlns:xlink="http://www.w3.org/1999/xlink" width="1500" zoomAndPan="magnify" viewBox="0 0 1125 1499.999933" height="2000" preserveAspectRatio="xMidYMid meet" version="1.0"><defs><filter x="0%" y="0%" width="100%" height="100%" id="350ac094a7"><feColorMatrix values="0 0 0 0 1 0 0 0 0 1 0 0 0 0 1 0 0 0 1 0" color-interpolation-filters="sRGB"/></filter><g/><mask id="b5456e7650"><g filter="url(#350ac094a7)"><rect x="-112.5" width="1350" fill="#000000" y="-149.999993" height="1799.99992" fill-opacity="0.4"/></g></mask><clipPath id="a3b945f6c5"><path d="M 0.183594 0.585938 L 150.183594 0.585938 L 150.183594 150.585938 L 0.183594 150.585938 Z M 0.183594 0.585938 " clip-rule="nonzero"/></clipPath><clipPath id="573e741ac8"><rect x="0" width="151" y="0" height="151"/></clipPath><mask id="b2ec7c9799"><g filter="url(#350ac094a7)"><rect x="-112.5" width="1350" fill="#000000" y="-149.999993" height="1799.99992" fill-opacity="0.4"/></g></mask><clipPath id="2364f90a38"><path d="M 0.765625 0.265625 L 226.515625 0.265625 L 226.515625 226.015625 L 0.765625 226.015625 Z M 0.765625 0.265625 " clip-rule="nonzero"/></clipPath><clipPath id="b984776e59"><rect x="0" width="227" y="0" height="227"/></clipPath><mask id="6d8c89aa5f"><g filter="url(#350ac094a7)"><rect x="-112.5" width="1350" fill="#000000" y="-149.999993" height="1799.99992" fill-opacity="0.4"/></g></mask><clipPath id="f71ea05760"><path d="M 0.175781 0.757812 L 131.425781 0.757812 L 131.425781 132.007812 L 0.175781 132.007812 Z M 0.175781 0.757812 " clip-rule="nonzero"/></clipPath><clipPath id="bf48a2b8dd"><rect x="0" width="132" y="0" height="133"/></clipPath><mask id="6144b32fb2"><g filter="url(#350ac094a7)"><rect x="-112.5" width="1350" fill="#000000" y="-149.999993" height="1799.99992" fill-opacity="0.298"/></g></mask><clipPath id="f927e9ed1d"><path d="M 0.519531 0.34375 L 226.269531 0.34375 L 226.269531 226.09375 L 0.519531 226.09375 Z M 0.519531 0.34375 " clip-rule="nonzero"/></clipPath><clipPath id="4c5cdcd61d"><rect x="0" width="227" y="0" height="227"/></clipPath><mask id="45685fb918"><g filter="url(#350ac094a7)"><rect x="-112.5" width="1350" fill="#000000" y="-149.999993" height="1799.99992" fill-opacity="0.6"/></g></mask><clipPath id="d19571fcd2"><path d="M 0.296875 0.84375 L 226.046875 0.84375 L 226.046875 226.59375 L 0.296875 226.59375 Z M 0.296875 0.84375 " clip-rule="nonzero"/></clipPath><clipPath id="471ba4300f"><rect x="0" width="227" y="0" height="227"/></clipPath><mask id="fd392f1d44"><g filter="url(#350ac094a7)"><rect x="-112.5" width="1350" fill="#000000" y="-149.999993" height="1799.99992" fill-opacity="0.298"/></g></mask><clipPath id="a81bf19c91"><path d="M 0.851562 0.734375 L 117.101562 0.734375 L 117.101562 116.984375 L 0.851562 116.984375 Z M 0.851562 0.734375 " clip-rule="nonzero"/></clipPath><clipPath id="544c9df0e2"><rect x="0" width="118" y="0" height="118"/></clipPath><mask id="cc746858e3"><g filter="url(#350ac094a7)"><rect x="-112.5" width="1350" fill="#000000" y="-149.999993" height="1799.99992" fill-opacity="0.6"/></g></mask><clipPath id="c8fd1b027a"><path d="M 0.621094 0.300781 L 131.871094 0.300781 L 131.871094 131.550781 L 0.621094 131.550781 Z M 0.621094 0.300781 " clip-rule="nonzero"/></clipPath><clipPath id="3156e0a8aa"><rect x="0" width="133" y="0" height="132"/></clipPath><mask id="9a2ce87538"><g filter="url(#350ac094a7)"><rect x="-112.5" width="1350" fill="#000000" y="-149.999993" height="1799.99992" fill-opacity="0.6"/></g></mask><clipPath id="93887d1156"><path d="M 0.355469 0 L 226.105469 0 L 226.105469 225.75 L 0.355469 225.75 Z M 0.355469 0 " clip-rule="nonzero"/></clipPath><clipPath id="4ac8f3ae06"><rect x="0" width="227" y="0" height="226"/></clipPath><mask id="5344fe5228"><g filter="url(#350ac094a7)"><rect x="-112.5" width="1350" fill="#000000" y="-149.999993" height="1799.99992" fill-opacity="0.6"/></g></mask><clipPath id="d1b3943666"><path d="M 0.542969 0.519531 L 116.792969 0.519531 L 116.792969 116.769531 L 0.542969 116.769531 Z M 0.542969 0.519531 " clip-rule="nonzero"/></clipPath><clipPath id="c0301eb7ed"><rect x="0" width="117" y="0" height="117"/></clipPath><mask id="56ff32f2c4"><g filter="url(#350ac094a7)"><rect x="-112.5" width="1350" fill="#000000" y="-149.999993" height="1799.99992" fill-opacity="0.4"/></g></mask><clipPath id="a3db6e2d8b"><path d="M 0.363281 1.050781 L 131.613281 1.050781 L 131.613281 132.300781 L 0.363281 132.300781 Z M 0.363281 1.050781 " clip-rule="nonzero"/></clipPath><clipPath id="5086a55381"><rect x="0" width="132" y="0" height="133"/></clipPath><mask id="f913cf308f"><g filter="url(#350ac094a7)"><rect x="-112.5" width="1350" fill="#000000" y="-149.999993" height="1799.99992" fill-opacity="0.298"/></g></mask><clipPath id="0f84b354c9"><path d="M 0.621094 0.804688 L 131.871094 0.804688 L 131.871094 132.054688 L 0.621094 132.054688 Z M 0.621094 0.804688 " clip-rule="nonzero"/></clipPath><clipPath id="0362820ddf"><rect x="0" width="132" y="0" height="133"/></clipPath><mask id="49c8ac7d44"><g filter="url(#350ac094a7)"><rect x="-112.5" width="1350" fill="#000000" y="-149.999993" height="1799.99992" fill-opacity="0.4078"/></g></mask><clipPath id="ccec9e0b8f"><path d="M 0.597656 0.542969 L 116.847656 0.542969 L 116.847656 116.792969 L 0.597656 116.792969 Z M 0.597656 0.542969 " clip-rule="nonzero"/></clipPath><clipPath id="b943700b42"><rect x="0" width="118" y="0" height="117"/></clipPath><mask id="bf9bc435a0"><g filter="url(#350ac094a7)"><rect x="-112.5" width="1350" fill="#000000" y="-149.999993" height="1799.99992" fill-opacity="0.298"/></g></mask><clipPath id="5322f04999"><path d="M 0.621094 0.519531 L 116.871094 0.519531 L 116.871094 116.769531 L 0.621094 116.769531 Z M 0.621094 0.519531 " clip-rule="nonzero"/></clipPath><clipPath id="5f351398a1"><rect x="0" width="117" y="0" height="117"/></clipPath><mask id="53e82f24de"><g filter="url(#350ac094a7)"><rect x="-112.5" width="1350" fill="#000000" y="-149.999993" height="1799.99992" fill-opacity="0.298"/></g></mask><clipPath id="fba47475fb"><path d="M 0 0.320312 L 116.25 0.320312 L 116.25 116.570312 L 0 116.570312 Z M 0 0.320312 " clip-rule="nonzero"/></clipPath><clipPath id="59ea0f9690"><rect x="0" width="117" y="0" height="117"/></clipPath></defs><rect x="-112.5" width="1350" fill="#ffffff" y="-149.999993" height="1799.99992" fill-opacity="1"/><rect x="-112.5" width="1350" fill="#ffffff" y="-149.999993" height="1799.99992" fill-opacity="1"/><rect x="-112.5" width="1350" fill="#f9fcff" y="-149.999993" height="1799.99992" fill-opacity="1"/><g mask="url(#b5456e7650)"><g transform="matrix(1, 0, 0, 1, 155, 628)"><g clip-path="url(#573e741ac8)"><g clip-path="url(#a3b945f6c5)"><path fill="#72d2cb" d="M 75.183594 0.585938 C 33.761719 0.585938 0.183594 34.164062 0.183594 75.585938 C 0.183594 117.007812 33.761719 150.585938 75.183594 150.585938 C 116.605469 150.585938 150.183594 117.007812 150.183594 75.585938 C 150.183594 34.164062 116.605469 0.585938 75.183594 0.585938 " fill-opacity="1" fill-rule="nonzero"/></g></g></g></g><g mask="url(#b2ec7c9799)"><g transform="matrix(1, 0, 0, 1, 703, 816)"><g clip-path="url(#b984776e59)"><g clip-path="url(#2364f90a38)"><path fill="#72d2cb" d="M 113.640625 0.265625 C 51.300781 0.265625 0.765625 50.800781 0.765625 113.140625 C 0.765625 175.480469 51.300781 226.015625 113.640625 226.015625 C 175.980469 226.015625 226.515625 175.480469 226.515625 113.140625 C 226.515625 50.800781 175.980469 0.265625 113.640625 0.265625 " fill-opacity="1" fill-rule="nonzero"/></g></g></g></g><g mask="url(#6d8c89aa5f)"><g transform="matrix(1, 0, 0, 1, 442, 381)"><g clip-path="url(#bf48a2b8dd)"><g clip-path="url(#f71ea05760)"><path fill="#72d2cb" d="M 65.800781 0.757812 C 29.554688 0.757812 0.175781 30.136719 0.175781 66.382812 C 0.175781 102.625 29.554688 132.007812 65.800781 132.007812 C 102.042969 132.007812 131.425781 102.625 131.425781 66.382812 C 131.425781 30.136719 102.042969 0.757812 65.800781 0.757812 " fill-opacity="1" fill-rule="nonzero"/></g></g></g></g><g fill="#273755" fill-opacity="1"><g transform="translate(197.800616, 641.946929)"><g><path d="M 25.933594 0.664062 C 38.828125 0.664062 43.761719 -3.90625 43.761719 -8.398438 C 43.761719 -10.902344 42.363281 -11.933594 42.363281 -11.933594 C 42.363281 -11.933594 39.195312 -7.589844 28.660156 -7.589844 C 19.890625 -7.589844 14.070312 -12.082031 14.070312 -23.207031 C 14.070312 -34.40625 19.890625 -38.972656 28.660156 -38.972656 C 39.195312 -38.972656 42.363281 -34.554688 42.363281 -34.554688 C 42.363281 -34.554688 43.761719 -35.21875 43.761719 -37.941406 C 43.761719 -41.996094 38.828125 -47.078125 25.933594 -47.078125 C 11.933594 -47.078125 2.800781 -39.785156 2.800781 -23.207031 C 2.800781 -6.703125 11.933594 0.664062 25.933594 0.664062 Z M 25.933594 0.664062 "/></g></g></g><g fill="#273755" fill-opacity="1"><g transform="translate(245.817636, 641.946929)"><g><path d="M 22.25 -33.816406 C 18.714844 -33.816406 16.0625 -32.121094 14.367188 -28.808594 L 14.367188 -28.953125 C 14.367188 -32.492188 12.453125 -33.816406 8.03125 -33.816406 C 4.714844 -33.816406 3.019531 -32.933594 3.019531 -32.933594 C 3.019531 -32.933594 3.535156 -31.976562 3.535156 -28.511719 L 3.535156 -4.347656 C 3.535156 -0.738281 5.453125 0.664062 9.871094 0.664062 C 13.113281 0.664062 14.957031 -0.292969 14.957031 -0.292969 C 14.957031 -0.292969 14.367188 -1.253906 14.367188 -4.640625 L 14.367188 -14.660156 C 14.367188 -22.617188 17.683594 -26.15625 22.472656 -26.15625 C 26.15625 -26.15625 27.703125 -24.386719 27.703125 -24.386719 C 27.703125 -24.386719 28.660156 -25.417969 28.660156 -28.144531 C 28.660156 -31.828125 26.375 -33.816406 22.25 -33.816406 Z M 22.25 -33.816406 "/></g></g></g><g fill="#273755" fill-opacity="1"><g transform="translate(276.675535, 641.946929)"><g><path d="M 35.070312 -16.503906 C 35.070312 -28.511719 29.914062 -33.890625 19.375 -33.890625 C 9.28125 -33.890625 2.800781 -28.511719 2.800781 -16.652344 C 2.800781 -4.789062 10.316406 0.664062 20.703125 0.664062 C 28.660156 0.664062 33.597656 -2.503906 33.597656 -6.777344 C 33.597656 -9.355469 32.636719 -10.386719 32.636719 -10.386719 C 32.636719 -10.386719 30.429688 -6.628906 24.460938 -6.628906 C 19.007812 -6.628906 15.472656 -9.0625 14.367188 -13.628906 L 31.828125 -13.628906 C 34.039062 -13.628906 35.070312 -14.808594 35.070312 -16.503906 Z M 19.671875 -26.597656 C 22.691406 -26.597656 24.679688 -24.902344 25.195312 -19.523438 L 14 -19.523438 C 14.515625 -24.902344 16.722656 -26.597656 19.671875 -26.597656 Z M 19.671875 -26.597656 "/></g></g></g><g fill="#273755" fill-opacity="1"><g transform="translate(316.002525, 641.946929)"><g><path d="M 34.773438 -21.808594 C 34.773438 -29.617188 29.691406 -33.890625 18.125 -33.890625 C 8.621094 -33.890625 4.496094 -30.722656 4.496094 -26.523438 C 4.496094 -23.796875 5.597656 -22.691406 5.597656 -22.691406 C 5.597656 -22.691406 7.957031 -26.597656 14.734375 -26.597656 C 20.851562 -26.597656 23.945312 -24.238281 23.945312 -19.671875 L 23.945312 -18.34375 C 21.808594 -19.449219 18.859375 -20.40625 14.734375 -20.40625 C 7.148438 -20.40625 2.800781 -16.578125 2.800781 -9.726562 C 2.800781 -3.019531 6.777344 0.664062 14.441406 0.664062 C 18.640625 0.664062 21.957031 -0.738281 24.019531 -3.460938 C 24.3125 -0.515625 26.300781 0.664062 30.355469 0.664062 C 33.597656 0.664062 35.363281 -0.367188 35.363281 -0.367188 C 35.363281 -0.367188 34.773438 -1.253906 34.773438 -4.714844 Z M 18.566406 -6.628906 C 15.324219 -6.628906 13.703125 -7.957031 13.703125 -10.609375 C 13.703125 -13.113281 15.691406 -14.515625 19.304688 -14.515625 C 21.292969 -14.515625 22.839844 -14.144531 23.945312 -13.703125 L 23.945312 -12.304688 C 23.945312 -8.546875 21.734375 -6.628906 18.566406 -6.628906 Z M 18.566406 -6.628906 "/></g></g></g><g fill="#273755" fill-opacity="1"><g transform="translate(356.43418, 641.946929)"><g/></g></g><g fill="#273755" fill-opacity="1"><g transform="translate(377.129184, 641.946929)"><g><path d="M 36.175781 -28.953125 C 36.175781 -32.492188 34.183594 -33.816406 29.765625 -33.816406 C 26.523438 -33.816406 24.753906 -32.933594 24.753906 -32.933594 C 24.753906 -32.933594 25.34375 -31.976562 25.34375 -28.511719 L 25.34375 -20.777344 C 25.34375 -10.167969 22.765625 -7.148438 19.230469 -7.148438 C 16.355469 -7.148438 15.03125 -8.546875 15.03125 -11.417969 L 15.03125 -28.953125 C 15.03125 -32.492188 13.039062 -33.816406 8.695312 -33.816406 C 5.378906 -33.816406 3.609375 -32.933594 3.609375 -32.933594 C 3.609375 -32.933594 4.199219 -31.976562 4.199219 -28.511719 L 4.199219 -9.578125 C 4.199219 -2.726562 7.21875 0.664062 14.070312 0.664062 C 19.082031 0.664062 22.988281 -1.324219 25.34375 -6.335938 L 25.34375 -4.347656 C 25.34375 -0.738281 27.1875 0.664062 31.605469 0.664062 C 34.921875 0.664062 36.691406 -0.292969 36.691406 -0.292969 C 36.691406 -0.292969 36.175781 -1.253906 36.175781 -4.640625 Z M 36.175781 -28.953125 "/></g></g></g><g fill="#273755" fill-opacity="1"><g transform="translate(418.886459, 641.946929)"><g><path d="M 36.175781 -23.648438 C 36.175781 -30.5 33.152344 -33.816406 26.230469 -33.816406 C 21.292969 -33.816406 17.386719 -31.828125 15.03125 -26.890625 L 15.03125 -28.953125 C 15.03125 -32.492188 13.113281 -33.816406 8.695312 -33.816406 C 5.453125 -33.816406 3.609375 -32.933594 3.609375 -32.933594 C 3.609375 -32.933594 4.125 -31.976562 4.125 -28.511719 L 4.125 -4.347656 C 4.125 -0.738281 6.113281 0.664062 10.535156 0.664062 C 13.777344 0.664062 15.546875 -0.292969 15.546875 -0.292969 C 15.546875 -0.292969 15.03125 -1.253906 15.03125 -4.640625 L 15.03125 -12.453125 C 15.03125 -23.058594 17.535156 -26.15625 21.070312 -26.15625 C 24.019531 -26.15625 25.269531 -24.679688 25.269531 -21.808594 L 25.269531 -4.347656 C 25.269531 -0.738281 27.261719 0.664062 31.679688 0.664062 C 34.921875 0.664062 36.691406 -0.292969 36.691406 -0.292969 C 36.691406 -0.292969 36.175781 -1.253906 36.175781 -4.640625 Z M 36.175781 -23.648438 "/></g></g></g><g fill="#273755" fill-opacity="1"><g transform="translate(460.643735, 641.946929)"><g><path d="M 34.773438 -21.808594 C 34.773438 -29.617188 29.691406 -33.890625 18.125 -33.890625 C 8.621094 -33.890625 4.496094 -30.722656 4.496094 -26.523438 C 4.496094 -23.796875 5.597656 -22.691406 5.597656 -22.691406 C 5.597656 -22.691406 7.957031 -26.597656 14.734375 -26.597656 C 20.851562 -26.597656 23.945312 -24.238281 23.945312 -19.671875 L 23.945312 -18.34375 C 21.808594 -19.449219 18.859375 -20.40625 14.734375 -20.40625 C 7.148438 -20.40625 2.800781 -16.578125 2.800781 -9.726562 C 2.800781 -3.019531 6.777344 0.664062 14.441406 0.664062 C 18.640625 0.664062 21.957031 -0.738281 24.019531 -3.460938 C 24.3125 -0.515625 26.300781 0.664062 30.355469 0.664062 C 33.597656 0.664062 35.363281 -0.367188 35.363281 -0.367188 C 35.363281 -0.367188 34.773438 -1.253906 34.773438 -4.714844 Z M 18.566406 -6.628906 C 15.324219 -6.628906 13.703125 -7.957031 13.703125 -10.609375 C 13.703125 -13.113281 15.691406 -14.515625 19.304688 -14.515625 C 21.292969 -14.515625 22.839844 -14.144531 23.945312 -13.703125 L 23.945312 -12.304688 C 23.945312 -8.546875 21.734375 -6.628906 18.566406 -6.628906 Z M 18.566406 -6.628906 "/></g></g></g><g fill="#273755" fill-opacity="1"><g transform="translate(501.075371, 641.946929)"><g/></g></g><g fill="#273755" fill-opacity="1"><g transform="translate(521.770375, 641.946929)"><g><path d="M 20.996094 0.664062 C 29.839844 0.664062 35.070312 -3.09375 35.070312 -7.808594 C 35.070312 -10.09375 33.890625 -11.199219 33.890625 -11.199219 C 33.890625 -11.199219 30.574219 -7.148438 23.648438 -7.148438 C 17.460938 -7.148438 13.925781 -10.316406 13.925781 -16.652344 C 13.925781 -23.355469 17.460938 -26.15625 23.648438 -26.15625 C 30.574219 -26.15625 33.890625 -22.027344 33.890625 -22.027344 C 33.890625 -22.027344 35.070312 -22.988281 35.070312 -25.933594 C 35.070312 -30.207031 30.058594 -33.890625 20.996094 -33.890625 C 9.871094 -33.890625 2.800781 -28.585938 2.800781 -16.652344 C 2.800781 -4.714844 9.726562 0.664062 20.996094 0.664062 Z M 20.996094 0.664062 "/></g></g></g><g fill="#273755" fill-opacity="1"><g transform="translate(561.097375, 641.946929)"><g><path d="M 36.175781 -28.953125 C 36.175781 -32.492188 34.183594 -33.816406 29.765625 -33.816406 C 26.523438 -33.816406 24.753906 -32.933594 24.753906 -32.933594 C 24.753906 -32.933594 25.34375 -31.976562 25.34375 -28.511719 L 25.34375 -20.777344 C 25.34375 -10.167969 22.765625 -7.148438 19.230469 -7.148438 C 16.355469 -7.148438 15.03125 -8.546875 15.03125 -11.417969 L 15.03125 -28.953125 C 15.03125 -32.492188 13.039062 -33.816406 8.695312 -33.816406 C 5.378906 -33.816406 3.609375 -32.933594 3.609375 -32.933594 C 3.609375 -32.933594 4.199219 -31.976562 4.199219 -28.511719 L 4.199219 -9.578125 C 4.199219 -2.726562 7.21875 0.664062 14.070312 0.664062 C 19.082031 0.664062 22.988281 -1.324219 25.34375 -6.335938 L 25.34375 -4.347656 C 25.34375 -0.738281 27.1875 0.664062 31.605469 0.664062 C 34.921875 0.664062 36.691406 -0.292969 36.691406 -0.292969 C 36.691406 -0.292969 36.175781 -1.253906 36.175781 -4.640625 Z M 36.175781 -28.953125 "/></g></g></g><g fill="#273755" fill-opacity="1"><g transform="translate(602.85465, 641.946929)"><g><path d="M 35.070312 -16.503906 C 35.070312 -28.511719 29.914062 -33.890625 19.375 -33.890625 C 9.28125 -33.890625 2.800781 -28.511719 2.800781 -16.652344 C 2.800781 -4.789062 10.316406 0.664062 20.703125 0.664062 C 28.660156 0.664062 33.597656 -2.503906 33.597656 -6.777344 C 33.597656 -9.355469 32.636719 -10.386719 32.636719 -10.386719 C 32.636719 -10.386719 30.429688 -6.628906 24.460938 -6.628906 C 19.007812 -6.628906 15.472656 -9.0625 14.367188 -13.628906 L 31.828125 -13.628906 C 34.039062 -13.628906 35.070312 -14.808594 35.070312 -16.503906 Z M 19.671875 -26.597656 C 22.691406 -26.597656 24.679688 -24.902344 25.195312 -19.523438 L 14 -19.523438 C 14.515625 -24.902344 16.722656 -26.597656 19.671875 -26.597656 Z M 19.671875 -26.597656 "/></g></g></g><g fill="#273755" fill-opacity="1"><g transform="translate(642.181649, 641.946929)"><g><path d="M 36.175781 -23.648438 C 36.175781 -30.5 33.152344 -33.816406 26.230469 -33.816406 C 21.292969 -33.816406 17.386719 -31.828125 15.03125 -26.890625 L 15.03125 -28.953125 C 15.03125 -32.492188 13.113281 -33.816406 8.695312 -33.816406 C 5.453125 -33.816406 3.609375 -32.933594 3.609375 -32.933594 C 3.609375 -32.933594 4.125 -31.976562 4.125 -28.511719 L 4.125 -4.347656 C 4.125 -0.738281 6.113281 0.664062 10.535156 0.664062 C 13.777344 0.664062 15.546875 -0.292969 15.546875 -0.292969 C 15.546875 -0.292969 15.03125 -1.253906 15.03125 -4.640625 L 15.03125 -12.453125 C 15.03125 -23.058594 17.535156 -26.15625 21.070312 -26.15625 C 24.019531 -26.15625 25.269531 -24.679688 25.269531 -21.808594 L 25.269531 -4.347656 C 25.269531 -0.738281 27.261719 0.664062 31.679688 0.664062 C 34.921875 0.664062 36.691406 -0.292969 36.691406 -0.292969 C 36.691406 -0.292969 36.175781 -1.253906 36.175781 -4.640625 Z M 36.175781 -23.648438 "/></g></g></g><g fill="#273755" fill-opacity="1"><g transform="translate(683.938925, 641.946929)"><g><path d="M 26.746094 -9.726562 C 26.746094 -9.726562 25.417969 -7.148438 21.292969 -7.148438 C 17.167969 -7.148438 15.03125 -9.355469 15.03125 -14 L 15.03125 -25.417969 L 23.207031 -25.417969 C 23.207031 -25.417969 24.164062 -26.082031 24.164062 -28.953125 C 24.164062 -32.050781 22.617188 -33.152344 21.292969 -33.152344 L 15.03125 -33.152344 L 15.03125 -38.828125 C 15.03125 -42.4375 13.039062 -43.761719 8.695312 -43.761719 C 5.378906 -43.761719 3.609375 -42.804688 3.609375 -42.804688 C 3.609375 -42.804688 4.199219 -41.847656 4.199219 -38.457031 L 4.199219 -11.566406 C 4.199219 -3.976562 8.25 0.664062 17.167969 0.664062 C 23.871094 0.664062 27.628906 -2.210938 27.628906 -6.703125 C 27.628906 -9.136719 26.746094 -9.726562 26.746094 -9.726562 Z M 26.746094 -9.726562 "/></g></g></g><g fill="#273755" fill-opacity="1"><g transform="translate(713.765817, 641.946929)"><g><path d="M 34.773438 -21.808594 C 34.773438 -29.617188 29.691406 -33.890625 18.125 -33.890625 C 8.621094 -33.890625 4.496094 -30.722656 4.496094 -26.523438 C 4.496094 -23.796875 5.597656 -22.691406 5.597656 -22.691406 C 5.597656 -22.691406 7.957031 -26.597656 14.734375 -26.597656 C 20.851562 -26.597656 23.945312 -24.238281 23.945312 -19.671875 L 23.945312 -18.34375 C 21.808594 -19.449219 18.859375 -20.40625 14.734375 -20.40625 C 7.148438 -20.40625 2.800781 -16.578125 2.800781 -9.726562 C 2.800781 -3.019531 6.777344 0.664062 14.441406 0.664062 C 18.640625 0.664062 21.957031 -0.738281 24.019531 -3.460938 C 24.3125 -0.515625 26.300781 0.664062 30.355469 0.664062 C 33.597656 0.664062 35.363281 -0.367188 35.363281 -0.367188 C 35.363281 -0.367188 34.773438 -1.253906 34.773438 -4.714844 Z M 18.566406 -6.628906 C 15.324219 -6.628906 13.703125 -7.957031 13.703125 -10.609375 C 13.703125 -13.113281 15.691406 -14.515625 19.304688 -14.515625 C 21.292969 -14.515625 22.839844 -14.144531 23.945312 -13.703125 L 23.945312 -12.304688 C 23.945312 -8.546875 21.734375 -6.628906 18.566406 -6.628906 Z M 18.566406 -6.628906 "/></g></g></g><g fill="#273755" fill-opacity="1"><g transform="translate(754.197472, 641.946929)"><g/></g></g><g fill="#273755" fill-opacity="1"><g transform="translate(774.892476, 641.946929)"><g><path d="M 24.238281 -33.816406 C 20.335938 -33.816406 17.09375 -32.492188 15.03125 -28.953125 C 15.03125 -32.492188 13.039062 -33.816406 8.695312 -33.816406 C 5.378906 -33.816406 3.609375 -32.933594 3.609375 -32.933594 C 3.609375 -32.933594 4.199219 -31.976562 4.199219 -28.511719 L 4.199219 12.304688 C 4.199219 15.839844 6.113281 17.238281 10.460938 17.238281 C 13.777344 17.238281 15.546875 16.28125 15.546875 16.28125 C 15.546875 16.28125 15.03125 15.324219 15.03125 11.933594 L 15.03125 0.441406 C 16.429688 0.589844 18.050781 0.664062 19.746094 0.664062 C 30.5 0.664062 37.796875 -5.15625 37.796875 -17.609375 C 37.796875 -28.21875 33.375 -33.816406 24.238281 -33.816406 Z M 18.789062 -7.148438 C 17.386719 -7.148438 16.136719 -7.21875 15.03125 -7.441406 L 15.03125 -16.578125 C 15.03125 -23.722656 17.460938 -26.15625 20.925781 -26.15625 C 24.828125 -26.15625 26.964844 -23.429688 26.964844 -17.609375 C 26.964844 -10.386719 24.09375 -7.148438 18.789062 -7.148438 Z M 18.789062 -7.148438 "/></g></g></g><g fill="#273755" fill-opacity="1"><g transform="translate(816.94429, 641.946929)"><g><path d="M 34.773438 -21.808594 C 34.773438 -29.617188 29.691406 -33.890625 18.125 -33.890625 C 8.621094 -33.890625 4.496094 -30.722656 4.496094 -26.523438 C 4.496094 -23.796875 5.597656 -22.691406 5.597656 -22.691406 C 5.597656 -22.691406 7.957031 -26.597656 14.734375 -26.597656 C 20.851562 -26.597656 23.945312 -24.238281 23.945312 -19.671875 L 23.945312 -18.34375 C 21.808594 -19.449219 18.859375 -20.40625 14.734375 -20.40625 C 7.148438 -20.40625 2.800781 -16.578125 2.800781 -9.726562 C 2.800781 -3.019531 6.777344 0.664062 14.441406 0.664062 C 18.640625 0.664062 21.957031 -0.738281 24.019531 -3.460938 C 24.3125 -0.515625 26.300781 0.664062 30.355469 0.664062 C 33.597656 0.664062 35.363281 -0.367188 35.363281 -0.367188 C 35.363281 -0.367188 34.773438 -1.253906 34.773438 -4.714844 Z M 18.566406 -6.628906 C 15.324219 -6.628906 13.703125 -7.957031 13.703125 -10.609375 C 13.703125 -13.113281 15.691406 -14.515625 19.304688 -14.515625 C 21.292969 -14.515625 22.839844 -14.144531 23.945312 -13.703125 L 23.945312 -12.304688 C 23.945312 -8.546875 21.734375 -6.628906 18.566406 -6.628906 Z M 18.566406 -6.628906 "/></g></g></g><g fill="#273755" fill-opacity="1"><g transform="translate(857.375908, 641.946929)"><g><path d="M 22.25 -33.816406 C 18.714844 -33.816406 16.0625 -32.121094 14.367188 -28.808594 L 14.367188 -28.953125 C 14.367188 -32.492188 12.453125 -33.816406 8.03125 -33.816406 C 4.714844 -33.816406 3.019531 -32.933594 3.019531 -32.933594 C 3.019531 -32.933594 3.535156 -31.976562 3.535156 -28.511719 L 3.535156 -4.347656 C 3.535156 -0.738281 5.453125 0.664062 9.871094 0.664062 C 13.113281 0.664062 14.957031 -0.292969 14.957031 -0.292969 C 14.957031 -0.292969 14.367188 -1.253906 14.367188 -4.640625 L 14.367188 -14.660156 C 14.367188 -22.617188 17.683594 -26.15625 22.472656 -26.15625 C 26.15625 -26.15625 27.703125 -24.386719 27.703125 -24.386719 C 27.703125 -24.386719 28.660156 -25.417969 28.660156 -28.144531 C 28.660156 -31.828125 26.375 -33.816406 22.25 -33.816406 Z M 22.25 -33.816406 "/></g></g></g><g fill="#273755" fill-opacity="1"><g transform="translate(888.233777, 641.946929)"><g><path d="M 34.773438 -21.808594 C 34.773438 -29.617188 29.691406 -33.890625 18.125 -33.890625 C 8.621094 -33.890625 4.496094 -30.722656 4.496094 -26.523438 C 4.496094 -23.796875 5.597656 -22.691406 5.597656 -22.691406 C 5.597656 -22.691406 7.957031 -26.597656 14.734375 -26.597656 C 20.851562 -26.597656 23.945312 -24.238281 23.945312 -19.671875 L 23.945312 -18.34375 C 21.808594 -19.449219 18.859375 -20.40625 14.734375 -20.40625 C 7.148438 -20.40625 2.800781 -16.578125 2.800781 -9.726562 C 2.800781 -3.019531 6.777344 0.664062 14.441406 0.664062 C 18.640625 0.664062 21.957031 -0.738281 24.019531 -3.460938 C 24.3125 -0.515625 26.300781 0.664062 30.355469 0.664062 C 33.597656 0.664062 35.363281 -0.367188 35.363281 -0.367188 C 35.363281 -0.367188 34.773438 -1.253906 34.773438 -4.714844 Z M 18.566406 -6.628906 C 15.324219 -6.628906 13.703125 -7.957031 13.703125 -10.609375 C 13.703125 -13.113281 15.691406 -14.515625 19.304688 -14.515625 C 21.292969 -14.515625 22.839844 -14.144531 23.945312 -13.703125 L 23.945312 -12.304688 C 23.945312 -8.546875 21.734375 -6.628906 18.566406 -6.628906 Z M 18.566406 -6.628906 "/></g></g></g><g fill="#273755" fill-opacity="1"><g transform="translate(160.690113, 731.964243)"><g><path d="M 35.070312 -16.503906 C 35.070312 -28.511719 29.914062 -33.890625 19.375 -33.890625 C 9.28125 -33.890625 2.800781 -28.511719 2.800781 -16.652344 C 2.800781 -4.789062 10.316406 0.664062 20.703125 0.664062 C 28.660156 0.664062 33.597656 -2.503906 33.597656 -6.777344 C 33.597656 -9.355469 32.636719 -10.386719 32.636719 -10.386719 C 32.636719 -10.386719 30.429688 -6.628906 24.460938 -6.628906 C 19.007812 -6.628906 15.472656 -9.0625 14.367188 -13.628906 L 31.828125 -13.628906 C 34.039062 -13.628906 35.070312 -14.808594 35.070312 -16.503906 Z M 19.671875 -26.597656 C 22.691406 -26.597656 24.679688 -24.902344 25.195312 -19.523438 L 14 -19.523438 C 14.515625 -24.902344 16.722656 -26.597656 19.671875 -26.597656 Z M 19.671875 -26.597656 "/></g></g></g><g fill="#273755" fill-opacity="1"><g transform="translate(200.017108, 731.964243)"><g><path d="M 57.320312 -23.648438 C 57.320312 -30.5 54.300781 -33.816406 47.375 -33.816406 C 42.289062 -33.816406 38.3125 -31.753906 35.953125 -26.449219 C 35.21875 -31.386719 32.121094 -33.816406 26.230469 -33.816406 C 21.292969 -33.816406 17.386719 -31.902344 15.03125 -26.890625 L 15.03125 -28.953125 C 15.03125 -32.492188 13.039062 -33.816406 8.695312 -33.816406 C 5.378906 -33.816406 3.609375 -32.933594 3.609375 -32.933594 C 3.609375 -32.933594 4.199219 -31.976562 4.199219 -28.511719 L 4.199219 -4.347656 C 4.199219 -0.738281 6.113281 0.664062 10.460938 0.664062 C 13.777344 0.664062 15.546875 -0.292969 15.546875 -0.292969 C 15.546875 -0.292969 15.03125 -1.253906 15.03125 -4.640625 L 15.03125 -12.453125 C 15.03125 -23.058594 17.535156 -26.15625 21.070312 -26.15625 C 23.945312 -26.15625 25.34375 -24.679688 25.34375 -21.808594 L 25.34375 -4.347656 C 25.34375 -0.738281 27.1875 0.664062 31.605469 0.664062 C 34.921875 0.664062 36.691406 -0.292969 36.691406 -0.292969 C 36.691406 -0.292969 36.175781 -1.253906 36.175781 -4.640625 L 36.175781 -12.453125 C 36.175781 -23.058594 38.679688 -26.15625 42.214844 -26.15625 C 45.089844 -26.15625 46.414062 -24.679688 46.414062 -21.808594 L 46.414062 -4.347656 C 46.414062 -0.738281 48.332031 0.664062 52.75 0.664062 C 55.992188 0.664062 57.835938 -0.292969 57.835938 -0.292969 C 57.835938 -0.292969 57.320312 -1.253906 57.320312 -4.640625 Z M 57.320312 -23.648438 "/></g></g></g><g fill="#273755" fill-opacity="1"><g transform="translate(262.910259, 731.964243)"><g><path d="M 24.238281 -33.816406 C 20.335938 -33.816406 17.09375 -32.492188 15.03125 -28.953125 C 15.03125 -32.492188 13.039062 -33.816406 8.695312 -33.816406 C 5.378906 -33.816406 3.609375 -32.933594 3.609375 -32.933594 C 3.609375 -32.933594 4.199219 -31.976562 4.199219 -28.511719 L 4.199219 12.304688 C 4.199219 15.839844 6.113281 17.238281 10.460938 17.238281 C 13.777344 17.238281 15.546875 16.28125 15.546875 16.28125 C 15.546875 16.28125 15.03125 15.324219 15.03125 11.933594 L 15.03125 0.441406 C 16.429688 0.589844 18.050781 0.664062 19.746094 0.664062 C 30.5 0.664062 37.796875 -5.15625 37.796875 -17.609375 C 37.796875 -28.21875 33.375 -33.816406 24.238281 -33.816406 Z M 18.789062 -7.148438 C 17.386719 -7.148438 16.136719 -7.21875 15.03125 -7.441406 L 15.03125 -16.578125 C 15.03125 -23.722656 17.460938 -26.15625 20.925781 -26.15625 C 24.828125 -26.15625 26.964844 -23.429688 26.964844 -17.609375 C 26.964844 -10.386719 24.09375 -7.148438 18.789062 -7.148438 Z M 18.789062 -7.148438 "/></g></g></g><g fill="#273755" fill-opacity="1"><g transform="translate(304.962101, 731.964243)"><g><path d="M 35.070312 -16.503906 C 35.070312 -28.511719 29.914062 -33.890625 19.375 -33.890625 C 9.28125 -33.890625 2.800781 -28.511719 2.800781 -16.652344 C 2.800781 -4.789062 10.316406 0.664062 20.703125 0.664062 C 28.660156 0.664062 33.597656 -2.503906 33.597656 -6.777344 C 33.597656 -9.355469 32.636719 -10.386719 32.636719 -10.386719 C 32.636719 -10.386719 30.429688 -6.628906 24.460938 -6.628906 C 19.007812 -6.628906 15.472656 -9.0625 14.367188 -13.628906 L 31.828125 -13.628906 C 34.039062 -13.628906 35.070312 -14.808594 35.070312 -16.503906 Z M 19.671875 -26.597656 C 22.691406 -26.597656 24.679688 -24.902344 25.195312 -19.523438 L 14 -19.523438 C 14.515625 -24.902344 16.722656 -26.597656 19.671875 -26.597656 Z M 19.671875 -26.597656 "/></g></g></g><g fill="#273755" fill-opacity="1"><g transform="translate(344.289101, 731.964243)"><g><path d="M 17.902344 -7.808594 L 33.523438 -25.710938 C 34.40625 -26.671875 35.070312 -28.21875 34.996094 -30.132812 C 34.921875 -32.121094 33.597656 -33.152344 31.902344 -33.152344 L 7.734375 -33.152344 C 4.863281 -33.152344 3.460938 -33.742188 3.460938 -33.742188 C 3.460938 -33.742188 2.503906 -32.636719 2.503906 -29.765625 C 2.503906 -26.597656 4.125 -25.417969 7.367188 -25.417969 L 19.820312 -25.417969 L 4.050781 -7.441406 C 3.167969 -6.484375 2.503906 -5.011719 2.578125 -3.019531 C 2.578125 -1.105469 3.90625 0 5.671875 0 L 30.207031 0 C 33.449219 0 34.996094 -1.179688 34.996094 -4.347656 C 34.996094 -7.21875 34.113281 -8.324219 34.113281 -8.324219 C 34.113281 -8.324219 32.636719 -7.808594 29.839844 -7.808594 Z M 17.902344 -7.808594 "/></g></g></g><g fill="#273755" fill-opacity="1"><g transform="translate(383.321524, 731.964243)"><g><path d="M 34.773438 -21.808594 C 34.773438 -29.617188 29.691406 -33.890625 18.125 -33.890625 C 8.621094 -33.890625 4.496094 -30.722656 4.496094 -26.523438 C 4.496094 -23.796875 5.597656 -22.691406 5.597656 -22.691406 C 5.597656 -22.691406 7.957031 -26.597656 14.734375 -26.597656 C 20.851562 -26.597656 23.945312 -24.238281 23.945312 -19.671875 L 23.945312 -18.34375 C 21.808594 -19.449219 18.859375 -20.40625 14.734375 -20.40625 C 7.148438 -20.40625 2.800781 -16.578125 2.800781 -9.726562 C 2.800781 -3.019531 6.777344 0.664062 14.441406 0.664062 C 18.640625 0.664062 21.957031 -0.738281 24.019531 -3.460938 C 24.3125 -0.515625 26.300781 0.664062 30.355469 0.664062 C 33.597656 0.664062 35.363281 -0.367188 35.363281 -0.367188 C 35.363281 -0.367188 34.773438 -1.253906 34.773438 -4.714844 Z M 18.566406 -6.628906 C 15.324219 -6.628906 13.703125 -7.957031 13.703125 -10.609375 C 13.703125 -13.113281 15.691406 -14.515625 19.304688 -14.515625 C 21.292969 -14.515625 22.839844 -14.144531 23.945312 -13.703125 L 23.945312 -12.304688 C 23.945312 -8.546875 21.734375 -6.628906 18.566406 -6.628906 Z M 18.566406 -6.628906 "/></g></g></g><g fill="#273755" fill-opacity="1"><g transform="translate(423.753179, 731.964243)"><g><path d="M 22.25 -33.816406 C 18.714844 -33.816406 16.0625 -32.121094 14.367188 -28.808594 L 14.367188 -28.953125 C 14.367188 -32.492188 12.453125 -33.816406 8.03125 -33.816406 C 4.714844 -33.816406 3.019531 -32.933594 3.019531 -32.933594 C 3.019531 -32.933594 3.535156 -31.976562 3.535156 -28.511719 L 3.535156 -4.347656 C 3.535156 -0.738281 5.453125 0.664062 9.871094 0.664062 C 13.113281 0.664062 14.957031 -0.292969 14.957031 -0.292969 C 14.957031 -0.292969 14.367188 -1.253906 14.367188 -4.640625 L 14.367188 -14.660156 C 14.367188 -22.617188 17.683594 -26.15625 22.472656 -26.15625 C 26.15625 -26.15625 27.703125 -24.386719 27.703125 -24.386719 C 27.703125 -24.386719 28.660156 -25.417969 28.660156 -28.144531 C 28.660156 -31.828125 26.375 -33.816406 22.25 -33.816406 Z M 22.25 -33.816406 "/></g></g></g><g fill="#273755" fill-opacity="1"><g transform="translate(454.611083, 731.964243)"><g/></g></g><g fill="#273755" fill-opacity="1"><g transform="translate(475.306069, 731.964243)"><g><path d="M 34.773438 -21.808594 C 34.773438 -29.617188 29.691406 -33.890625 18.125 -33.890625 C 8.621094 -33.890625 4.496094 -30.722656 4.496094 -26.523438 C 4.496094 -23.796875 5.597656 -22.691406 5.597656 -22.691406 C 5.597656 -22.691406 7.957031 -26.597656 14.734375 -26.597656 C 20.851562 -26.597656 23.945312 -24.238281 23.945312 -19.671875 L 23.945312 -18.34375 C 21.808594 -19.449219 18.859375 -20.40625 14.734375 -20.40625 C 7.148438 -20.40625 2.800781 -16.578125 2.800781 -9.726562 C 2.800781 -3.019531 6.777344 0.664062 14.441406 0.664062 C 18.640625 0.664062 21.957031 -0.738281 24.019531 -3.460938 C 24.3125 -0.515625 26.300781 0.664062 30.355469 0.664062 C 33.597656 0.664062 35.363281 -0.367188 35.363281 -0.367188 C 35.363281 -0.367188 34.773438 -1.253906 34.773438 -4.714844 Z M 18.566406 -6.628906 C 15.324219 -6.628906 13.703125 -7.957031 13.703125 -10.609375 C 13.703125 -13.113281 15.691406 -14.515625 19.304688 -14.515625 C 21.292969 -14.515625 22.839844 -14.144531 23.945312 -13.703125 L 23.945312 -12.304688 C 23.945312 -8.546875 21.734375 -6.628906 18.566406 -6.628906 Z M 18.566406 -6.628906 "/></g></g></g><g fill="#273755" fill-opacity="1"><g transform="translate(515.737724, 731.964243)"><g/></g></g><g fill="#273755" fill-opacity="1"><g transform="translate(536.432728, 731.964243)"><g><path d="M 20.925781 -33.890625 C 10.167969 -33.890625 2.800781 -28.144531 2.800781 -15.691406 C 2.800781 -5.082031 7.21875 0.664062 16.355469 0.664062 C 20.261719 0.664062 23.503906 -0.664062 25.566406 -4.199219 L 25.566406 -0.292969 C 25.566406 6.335938 21.808594 9.503906 15.472656 9.503906 C 7.957031 9.503906 5.597656 5.597656 5.597656 5.597656 C 5.597656 5.597656 4.421875 7.21875 4.421875 9.726562 C 4.421875 14.515625 8.765625 17.238281 17.976562 17.238281 C 30.574219 17.238281 36.394531 11.566406 36.394531 0.589844 L 36.394531 -31.605469 C 36.394531 -31.605469 32.636719 -33.890625 20.925781 -33.890625 Z M 19.671875 -7.148438 C 15.765625 -7.148438 13.703125 -9.871094 13.703125 -15.691406 C 13.703125 -22.914062 16.503906 -26.15625 21.808594 -26.15625 C 23.429688 -26.15625 24.679688 -25.933594 25.566406 -25.710938 L 25.566406 -16.652344 C 25.566406 -9.578125 23.132812 -7.148438 19.671875 -7.148438 Z M 19.671875 -7.148438 "/></g></g></g><g fill="#273755" fill-opacity="1"><g transform="translate(578.337291, 731.964243)"><g><path d="M 20.480469 0.664062 C 32.34375 0.664062 38.089844 -5.378906 38.089844 -16.652344 C 38.089844 -27.921875 32.34375 -33.890625 20.480469 -33.890625 C 8.546875 -33.890625 2.800781 -27.921875 2.800781 -16.652344 C 2.800781 -5.378906 8.546875 0.664062 20.480469 0.664062 Z M 20.480469 -7.148438 C 15.914062 -7.148438 13.703125 -10.167969 13.703125 -16.652344 C 13.703125 -23.132812 15.914062 -26.15625 20.480469 -26.15625 C 24.976562 -26.15625 27.261719 -23.132812 27.261719 -16.652344 C 27.261719 -10.167969 24.976562 -7.148438 20.480469 -7.148438 Z M 20.480469 -7.148438 "/></g></g></g><g fill="#273755" fill-opacity="1"><g transform="translate(620.683715, 731.964243)"><g><path d="M 17.902344 -7.808594 L 33.523438 -25.710938 C 34.40625 -26.671875 35.070312 -28.21875 34.996094 -30.132812 C 34.921875 -32.121094 33.597656 -33.152344 31.902344 -33.152344 L 7.734375 -33.152344 C 4.863281 -33.152344 3.460938 -33.742188 3.460938 -33.742188 C 3.460938 -33.742188 2.503906 -32.636719 2.503906 -29.765625 C 2.503906 -26.597656 4.125 -25.417969 7.367188 -25.417969 L 19.820312 -25.417969 L 4.050781 -7.441406 C 3.167969 -6.484375 2.503906 -5.011719 2.578125 -3.019531 C 2.578125 -1.105469 3.90625 0 5.671875 0 L 30.207031 0 C 33.449219 0 34.996094 -1.179688 34.996094 -4.347656 C 34.996094 -7.21875 34.113281 -8.324219 34.113281 -8.324219 C 34.113281 -8.324219 32.636719 -7.808594 29.839844 -7.808594 Z M 17.902344 -7.808594 "/></g></g></g><g fill="#273755" fill-opacity="1"><g transform="translate(659.716139, 731.964243)"><g><path d="M 34.773438 -21.808594 C 34.773438 -29.617188 29.691406 -33.890625 18.125 -33.890625 C 8.621094 -33.890625 4.496094 -30.722656 4.496094 -26.523438 C 4.496094 -23.796875 5.597656 -22.691406 5.597656 -22.691406 C 5.597656 -22.691406 7.957031 -26.597656 14.734375 -26.597656 C 20.851562 -26.597656 23.945312 -24.238281 23.945312 -19.671875 L 23.945312 -18.34375 C 21.808594 -19.449219 18.859375 -20.40625 14.734375 -20.40625 C 7.148438 -20.40625 2.800781 -16.578125 2.800781 -9.726562 C 2.800781 -3.019531 6.777344 0.664062 14.441406 0.664062 C 18.640625 0.664062 21.957031 -0.738281 24.019531 -3.460938 C 24.3125 -0.515625 26.300781 0.664062 30.355469 0.664062 C 33.597656 0.664062 35.363281 -0.367188 35.363281 -0.367188 C 35.363281 -0.367188 34.773438 -1.253906 34.773438 -4.714844 Z M 18.566406 -6.628906 C 15.324219 -6.628906 13.703125 -7.957031 13.703125 -10.609375 C 13.703125 -13.113281 15.691406 -14.515625 19.304688 -14.515625 C 21.292969 -14.515625 22.839844 -14.144531 23.945312 -13.703125 L 23.945312 -12.304688 C 23.945312 -8.546875 21.734375 -6.628906 18.566406 -6.628906 Z M 18.566406 -6.628906 "/></g></g></g><g fill="#273755" fill-opacity="1"><g transform="translate(700.147794, 731.964243)"><g><path d="M 22.25 -33.816406 C 18.714844 -33.816406 16.0625 -32.121094 14.367188 -28.808594 L 14.367188 -28.953125 C 14.367188 -32.492188 12.453125 -33.816406 8.03125 -33.816406 C 4.714844 -33.816406 3.019531 -32.933594 3.019531 -32.933594 C 3.019531 -32.933594 3.535156 -31.976562 3.535156 -28.511719 L 3.535156 -4.347656 C 3.535156 -0.738281 5.453125 0.664062 9.871094 0.664062 C 13.113281 0.664062 14.957031 -0.292969 14.957031 -0.292969 C 14.957031 -0.292969 14.367188 -1.253906 14.367188 -4.640625 L 14.367188 -14.660156 C 14.367188 -22.617188 17.683594 -26.15625 22.472656 -26.15625 C 26.15625 -26.15625 27.703125 -24.386719 27.703125 -24.386719 C 27.703125 -24.386719 28.660156 -25.417969 28.660156 -28.144531 C 28.660156 -31.828125 26.375 -33.816406 22.25 -33.816406 Z M 22.25 -33.816406 "/></g></g></g><g fill="#273755" fill-opacity="1"><g transform="translate(731.005698, 731.964243)"><g/></g></g><g fill="#273755" fill-opacity="1"><g transform="translate(751.700702, 731.964243)"><g><path d="M 9.652344 -39.785156 C 13.703125 -39.785156 15.914062 -41.554688 15.914062 -45.089844 C 15.914062 -48.773438 13.703125 -50.394531 9.652344 -50.394531 C 5.527344 -50.394531 3.242188 -48.773438 3.242188 -45.089844 C 3.242188 -41.554688 5.527344 -39.785156 9.652344 -39.785156 Z M 2.136719 17.238281 C 10.535156 17.238281 15.03125 12.671875 15.03125 4.199219 L 15.03125 -28.953125 C 15.03125 -32.492188 13.113281 -33.816406 8.695312 -33.816406 C 5.378906 -33.816406 3.609375 -32.933594 3.609375 -32.933594 C 3.609375 -32.933594 4.199219 -31.976562 4.199219 -28.511719 L 4.199219 4.050781 C 4.199219 7.441406 2.429688 9.503906 -1.621094 9.503906 C -5.820312 9.503906 -7.074219 6.851562 -7.074219 6.851562 C -7.074219 6.851562 -8.105469 7.734375 -8.105469 10.09375 C -8.105469 13.851562 -5.15625 17.238281 2.136719 17.238281 Z M 2.136719 17.238281 "/></g></g></g><g fill="#273755" fill-opacity="1"><g transform="translate(772.39567, 731.964243)"><g><path d="M 36.175781 -28.953125 C 36.175781 -32.492188 34.183594 -33.816406 29.765625 -33.816406 C 26.523438 -33.816406 24.753906 -32.933594 24.753906 -32.933594 C 24.753906 -32.933594 25.34375 -31.976562 25.34375 -28.511719 L 25.34375 -20.777344 C 25.34375 -10.167969 22.765625 -7.148438 19.230469 -7.148438 C 16.355469 -7.148438 15.03125 -8.546875 15.03125 -11.417969 L 15.03125 -28.953125 C 15.03125 -32.492188 13.039062 -33.816406 8.695312 -33.816406 C 5.378906 -33.816406 3.609375 -32.933594 3.609375 -32.933594 C 3.609375 -32.933594 4.199219 -31.976562 4.199219 -28.511719 L 4.199219 -9.578125 C 4.199219 -2.726562 7.21875 0.664062 14.070312 0.664062 C 19.082031 0.664062 22.988281 -1.324219 25.34375 -6.335938 L 25.34375 -4.347656 C 25.34375 -0.738281 27.1875 0.664062 31.605469 0.664062 C 34.921875 0.664062 36.691406 -0.292969 36.691406 -0.292969 C 36.691406 -0.292969 36.175781 -1.253906 36.175781 -4.640625 Z M 36.175781 -28.953125 "/></g></g></g><g fill="#273755" fill-opacity="1"><g transform="translate(814.152946, 731.964243)"><g><path d="M 36.175781 -23.648438 C 36.175781 -30.5 33.152344 -33.816406 26.230469 -33.816406 C 21.292969 -33.816406 17.386719 -31.828125 15.03125 -26.890625 L 15.03125 -28.953125 C 15.03125 -32.492188 13.113281 -33.816406 8.695312 -33.816406 C 5.453125 -33.816406 3.609375 -32.933594 3.609375 -32.933594 C 3.609375 -32.933594 4.125 -31.976562 4.125 -28.511719 L 4.125 -4.347656 C 4.125 -0.738281 6.113281 0.664062 10.535156 0.664062 C 13.777344 0.664062 15.546875 -0.292969 15.546875 -0.292969 C 15.546875 -0.292969 15.03125 -1.253906 15.03125 -4.640625 L 15.03125 -12.453125 C 15.03125 -23.058594 17.535156 -26.15625 21.070312 -26.15625 C 24.019531 -26.15625 25.269531 -24.679688 25.269531 -21.808594 L 25.269531 -4.347656 C 25.269531 -0.738281 27.261719 0.664062 31.679688 0.664062 C 34.921875 0.664062 36.691406 -0.292969 36.691406 -0.292969 C 36.691406 -0.292969 36.175781 -1.253906 36.175781 -4.640625 Z M 36.175781 -23.648438 "/></g></g></g><g fill="#273755" fill-opacity="1"><g transform="translate(855.910221, 731.964243)"><g><path d="M 26.746094 -9.726562 C 26.746094 -9.726562 25.417969 -7.148438 21.292969 -7.148438 C 17.167969 -7.148438 15.03125 -9.355469 15.03125 -14 L 15.03125 -25.417969 L 23.207031 -25.417969 C 23.207031 -25.417969 24.164062 -26.082031 24.164062 -28.953125 C 24.164062 -32.050781 22.617188 -33.152344 21.292969 -33.152344 L 15.03125 -33.152344 L 15.03125 -38.828125 C 15.03125 -42.4375 13.039062 -43.761719 8.695312 -43.761719 C 5.378906 -43.761719 3.609375 -42.804688 3.609375 -42.804688 C 3.609375 -42.804688 4.199219 -41.847656 4.199219 -38.457031 L 4.199219 -11.566406 C 4.199219 -3.976562 8.25 0.664062 17.167969 0.664062 C 23.871094 0.664062 27.628906 -2.210938 27.628906 -6.703125 C 27.628906 -9.136719 26.746094 -9.726562 26.746094 -9.726562 Z M 26.746094 -9.726562 "/></g></g></g><g fill="#273755" fill-opacity="1"><g transform="translate(885.737078, 731.964243)"><g><path d="M 20.480469 0.664062 C 32.34375 0.664062 38.089844 -5.378906 38.089844 -16.652344 C 38.089844 -27.921875 32.34375 -33.890625 20.480469 -33.890625 C 8.546875 -33.890625 2.800781 -27.921875 2.800781 -16.652344 C 2.800781 -5.378906 8.546875 0.664062 20.480469 0.664062 Z M 20.480469 -7.148438 C 15.914062 -7.148438 13.703125 -10.167969 13.703125 -16.652344 C 13.703125 -23.132812 15.914062 -26.15625 20.480469 -26.15625 C 24.976562 -26.15625 27.261719 -23.132812 27.261719 -16.652344 C 27.261719 -10.167969 24.976562 -7.148438 20.480469 -7.148438 Z M 20.480469 -7.148438 "/></g></g></g><g fill="#273755" fill-opacity="1"><g transform="translate(928.083503, 731.964243)"><g><path d="M 17.902344 0.664062 C 28.4375 0.664062 33.449219 -2.652344 33.449219 -10.460938 C 33.449219 -16.136719 30.355469 -18.859375 24.09375 -19.890625 L 17.683594 -20.925781 C 15.546875 -21.292969 14.585938 -22.324219 14.585938 -23.722656 C 14.585938 -25.710938 15.988281 -26.597656 19.671875 -26.597656 C 27.332031 -26.597656 31.015625 -23.578125 31.015625 -23.578125 C 31.015625 -23.578125 31.902344 -24.902344 31.902344 -27.703125 C 31.902344 -31.238281 28.4375 -33.890625 17.535156 -33.890625 C 8.03125 -33.890625 3.757812 -30.355469 3.757812 -23.578125 C 3.757812 -18.199219 6.628906 -14.515625 13.554688 -13.484375 L 20.554688 -12.304688 C 22.617188 -11.933594 23.648438 -11.125 23.648438 -9.652344 C 23.648438 -7.441406 21.957031 -6.628906 18.34375 -6.628906 C 7.515625 -6.628906 3.976562 -10.535156 3.976562 -10.535156 C 3.976562 -10.535156 2.800781 -9.28125 2.800781 -6.410156 C 2.800781 -2.429688 6.335938 0.664062 17.902344 0.664062 Z M 17.902344 0.664062 "/></g></g></g><g fill="#273755" fill-opacity="1"><g transform="translate(156.254164, 821.981557)"><g><path d="M 36.394531 -45.53125 C 36.394531 -49.066406 34.480469 -50.394531 30.132812 -50.394531 C 26.816406 -50.394531 25.050781 -49.511719 25.050781 -49.511719 C 25.050781 -49.511719 25.566406 -48.550781 25.566406 -45.089844 L 25.566406 -33.597656 C 24.164062 -33.742188 22.542969 -33.816406 20.851562 -33.816406 C 10.09375 -33.816406 2.800781 -28.144531 2.800781 -15.621094 C 2.800781 -5.011719 7.21875 0.664062 16.355469 0.664062 C 20.261719 0.664062 23.503906 -0.664062 25.566406 -4.273438 C 25.640625 -0.738281 27.554688 0.664062 31.902344 0.664062 C 35.21875 0.664062 36.984375 -0.292969 36.984375 -0.292969 C 36.984375 -0.292969 36.394531 -1.253906 36.394531 -4.640625 Z M 19.671875 -7.148438 C 15.765625 -7.148438 13.628906 -9.871094 13.628906 -15.621094 C 13.628906 -22.914062 16.503906 -26.15625 21.808594 -26.15625 C 23.207031 -26.15625 24.460938 -26.082031 25.566406 -25.859375 L 25.566406 -16.578125 C 25.566406 -9.578125 23.132812 -7.148438 19.671875 -7.148438 Z M 19.671875 -7.148438 "/></g></g></g><g fill="#273755" fill-opacity="1"><g transform="translate(198.30601, 821.981557)"><g><path d="M 35.070312 -16.503906 C 35.070312 -28.511719 29.914062 -33.890625 19.375 -33.890625 C 9.28125 -33.890625 2.800781 -28.511719 2.800781 -16.652344 C 2.800781 -4.789062 10.316406 0.664062 20.703125 0.664062 C 28.660156 0.664062 33.597656 -2.503906 33.597656 -6.777344 C 33.597656 -9.355469 32.636719 -10.386719 32.636719 -10.386719 C 32.636719 -10.386719 30.429688 -6.628906 24.460938 -6.628906 C 19.007812 -6.628906 15.472656 -9.0625 14.367188 -13.628906 L 31.828125 -13.628906 C 34.039062 -13.628906 35.070312 -14.808594 35.070312 -16.503906 Z M 19.671875 -26.597656 C 22.691406 -26.597656 24.679688 -24.902344 25.195312 -19.523438 L 14 -19.523438 C 14.515625 -24.902344 16.722656 -26.597656 19.671875 -26.597656 Z M 19.671875 -26.597656 "/></g></g></g><g fill="#273755" fill-opacity="1"><g transform="translate(237.633005, 821.981557)"><g/></g></g><g fill="#273755" fill-opacity="1"><g transform="translate(258.328, 821.981557)"><g><path d="M 10.460938 0.664062 C 13.777344 0.664062 15.546875 -0.292969 15.546875 -0.292969 C 15.546875 -0.292969 15.03125 -1.253906 15.03125 -4.640625 L 15.03125 -45.53125 C 15.03125 -49.066406 13.039062 -50.394531 8.695312 -50.394531 C 5.378906 -50.394531 3.609375 -49.511719 3.609375 -49.511719 C 3.609375 -49.511719 4.199219 -48.550781 4.199219 -45.089844 L 4.199219 -4.347656 C 4.199219 -0.738281 6.113281 0.664062 10.460938 0.664062 Z M 10.460938 0.664062 "/></g></g></g><g fill="#273755" fill-opacity="1"><g transform="translate(278.949361, 821.981557)"><g><path d="M 34.773438 -21.808594 C 34.773438 -29.617188 29.691406 -33.890625 18.125 -33.890625 C 8.621094 -33.890625 4.496094 -30.722656 4.496094 -26.523438 C 4.496094 -23.796875 5.597656 -22.691406 5.597656 -22.691406 C 5.597656 -22.691406 7.957031 -26.597656 14.734375 -26.597656 C 20.851562 -26.597656 23.945312 -24.238281 23.945312 -19.671875 L 23.945312 -18.34375 C 21.808594 -19.449219 18.859375 -20.40625 14.734375 -20.40625 C 7.148438 -20.40625 2.800781 -16.578125 2.800781 -9.726562 C 2.800781 -3.019531 6.777344 0.664062 14.441406 0.664062 C 18.640625 0.664062 21.957031 -0.738281 24.019531 -3.460938 C 24.3125 -0.515625 26.300781 0.664062 30.355469 0.664062 C 33.597656 0.664062 35.363281 -0.367188 35.363281 -0.367188 C 35.363281 -0.367188 34.773438 -1.253906 34.773438 -4.714844 Z M 18.566406 -6.628906 C 15.324219 -6.628906 13.703125 -7.957031 13.703125 -10.609375 C 13.703125 -13.113281 15.691406 -14.515625 19.304688 -14.515625 C 21.292969 -14.515625 22.839844 -14.144531 23.945312 -13.703125 L 23.945312 -12.304688 C 23.945312 -8.546875 21.734375 -6.628906 18.566406 -6.628906 Z M 18.566406 -6.628906 "/></g></g></g><g fill="#273755" fill-opacity="1"><g transform="translate(319.381016, 821.981557)"><g><path d="M 17.902344 0.664062 C 28.4375 0.664062 33.449219 -2.652344 33.449219 -10.460938 C 33.449219 -16.136719 30.355469 -18.859375 24.09375 -19.890625 L 17.683594 -20.925781 C 15.546875 -21.292969 14.585938 -22.324219 14.585938 -23.722656 C 14.585938 -25.710938 15.988281 -26.597656 19.671875 -26.597656 C 27.332031 -26.597656 31.015625 -23.578125 31.015625 -23.578125 C 31.015625 -23.578125 31.902344 -24.902344 31.902344 -27.703125 C 31.902344 -31.238281 28.4375 -33.890625 17.535156 -33.890625 C 8.03125 -33.890625 3.757812 -30.355469 3.757812 -23.578125 C 3.757812 -18.199219 6.628906 -14.515625 13.554688 -13.484375 L 20.554688 -12.304688 C 22.617188 -11.933594 23.648438 -11.125 23.648438 -9.652344 C 23.648438 -7.441406 21.957031 -6.628906 18.34375 -6.628906 C 7.515625 -6.628906 3.976562 -10.535156 3.976562 -10.535156 C 3.976562 -10.535156 2.800781 -9.28125 2.800781 -6.410156 C 2.800781 -2.429688 6.335938 0.664062 17.902344 0.664062 Z M 17.902344 0.664062 "/></g></g></g><g fill="#273755" fill-opacity="1"><g transform="translate(357.087853, 821.981557)"><g/></g></g><g fill="#273755" fill-opacity="1"><g transform="translate(377.782857, 821.981557)"><g><path d="M 24.238281 -33.816406 C 20.335938 -33.816406 17.09375 -32.492188 15.03125 -28.953125 C 15.03125 -32.492188 13.039062 -33.816406 8.695312 -33.816406 C 5.378906 -33.816406 3.609375 -32.933594 3.609375 -32.933594 C 3.609375 -32.933594 4.199219 -31.976562 4.199219 -28.511719 L 4.199219 12.304688 C 4.199219 15.839844 6.113281 17.238281 10.460938 17.238281 C 13.777344 17.238281 15.546875 16.28125 15.546875 16.28125 C 15.546875 16.28125 15.03125 15.324219 15.03125 11.933594 L 15.03125 0.441406 C 16.429688 0.589844 18.050781 0.664062 19.746094 0.664062 C 30.5 0.664062 37.796875 -5.15625 37.796875 -17.609375 C 37.796875 -28.21875 33.375 -33.816406 24.238281 -33.816406 Z M 18.789062 -7.148438 C 17.386719 -7.148438 16.136719 -7.21875 15.03125 -7.441406 L 15.03125 -16.578125 C 15.03125 -23.722656 17.460938 -26.15625 20.925781 -26.15625 C 24.828125 -26.15625 26.964844 -23.429688 26.964844 -17.609375 C 26.964844 -10.386719 24.09375 -7.148438 18.789062 -7.148438 Z M 18.789062 -7.148438 "/></g></g></g><g fill="#273755" fill-opacity="1"><g transform="translate(419.834708, 821.981557)"><g><path d="M 20.480469 0.664062 C 32.34375 0.664062 38.089844 -5.378906 38.089844 -16.652344 C 38.089844 -27.921875 32.34375 -33.890625 20.480469 -33.890625 C 8.546875 -33.890625 2.800781 -27.921875 2.800781 -16.652344 C 2.800781 -5.378906 8.546875 0.664062 20.480469 0.664062 Z M 20.480469 -7.148438 C 15.914062 -7.148438 13.703125 -10.167969 13.703125 -16.652344 C 13.703125 -23.132812 15.914062 -26.15625 20.480469 -26.15625 C 24.976562 -26.15625 27.261719 -23.132812 27.261719 -16.652344 C 27.261719 -10.167969 24.976562 -7.148438 20.480469 -7.148438 Z M 20.480469 -7.148438 "/></g></g></g><g fill="#273755" fill-opacity="1"><g transform="translate(462.181117, 821.981557)"><g><path d="M 17.902344 0.664062 C 28.4375 0.664062 33.449219 -2.652344 33.449219 -10.460938 C 33.449219 -16.136719 30.355469 -18.859375 24.09375 -19.890625 L 17.683594 -20.925781 C 15.546875 -21.292969 14.585938 -22.324219 14.585938 -23.722656 C 14.585938 -25.710938 15.988281 -26.597656 19.671875 -26.597656 C 27.332031 -26.597656 31.015625 -23.578125 31.015625 -23.578125 C 31.015625 -23.578125 31.902344 -24.902344 31.902344 -27.703125 C 31.902344 -31.238281 28.4375 -33.890625 17.535156 -33.890625 C 8.03125 -33.890625 3.757812 -30.355469 3.757812 -23.578125 C 3.757812 -18.199219 6.628906 -14.515625 13.554688 -13.484375 L 20.554688 -12.304688 C 22.617188 -11.933594 23.648438 -11.125 23.648438 -9.652344 C 23.648438 -7.441406 21.957031 -6.628906 18.34375 -6.628906 C 7.515625 -6.628906 3.976562 -10.535156 3.976562 -10.535156 C 3.976562 -10.535156 2.800781 -9.28125 2.800781 -6.410156 C 2.800781 -2.429688 6.335938 0.664062 17.902344 0.664062 Z M 17.902344 0.664062 "/></g></g></g><g fill="#273755" fill-opacity="1"><g transform="translate(499.887954, 821.981557)"><g><path d="M 9.578125 -39.785156 C 13.703125 -39.785156 15.914062 -41.554688 15.914062 -45.089844 C 15.914062 -48.773438 13.703125 -50.394531 9.578125 -50.394531 C 5.527344 -50.394531 3.242188 -48.773438 3.242188 -45.089844 C 3.242188 -41.554688 5.527344 -39.785156 9.578125 -39.785156 Z M 10.535156 0.664062 C 13.851562 0.664062 15.621094 -0.292969 15.621094 -0.292969 C 15.621094 -0.292969 15.03125 -1.253906 15.03125 -4.640625 L 15.03125 -28.953125 C 15.03125 -32.492188 13.113281 -33.816406 8.695312 -33.816406 C 5.378906 -33.816406 3.683594 -32.933594 3.683594 -32.933594 C 3.683594 -32.933594 4.199219 -31.976562 4.199219 -28.511719 L 4.199219 -4.347656 C 4.199219 -0.738281 6.113281 0.664062 10.535156 0.664062 Z M 10.535156 0.664062 "/></g></g></g><g fill="#273755" fill-opacity="1"><g transform="translate(520.582958, 821.981557)"><g><path d="M 24.3125 -33.816406 C 20.335938 -33.816406 17.09375 -32.492188 15.03125 -28.953125 L 15.03125 -45.53125 C 15.03125 -49.066406 13.113281 -50.394531 8.695312 -50.394531 C 5.378906 -50.394531 3.609375 -49.511719 3.609375 -49.511719 C 3.609375 -49.511719 4.199219 -48.550781 4.199219 -45.089844 L 4.199219 -1.695312 C 4.199219 -1.695312 8.03125 0.664062 19.746094 0.664062 C 30.5 0.664062 37.871094 -5.15625 37.871094 -17.609375 C 37.871094 -28.21875 33.375 -33.816406 24.3125 -33.816406 Z M 18.789062 -7.148438 C 17.167969 -7.148438 15.914062 -7.367188 15.03125 -7.589844 L 15.03125 -16.578125 C 15.03125 -23.722656 17.460938 -26.15625 20.996094 -26.15625 C 24.828125 -26.15625 26.964844 -23.429688 26.964844 -17.609375 C 26.964844 -10.386719 24.09375 -7.148438 18.789062 -7.148438 Z M 18.789062 -7.148438 "/></g></g></g><g fill="#273755" fill-opacity="1"><g transform="translate(562.708453, 821.981557)"><g><path d="M 9.578125 -39.785156 C 13.703125 -39.785156 15.914062 -41.554688 15.914062 -45.089844 C 15.914062 -48.773438 13.703125 -50.394531 9.578125 -50.394531 C 5.527344 -50.394531 3.242188 -48.773438 3.242188 -45.089844 C 3.242188 -41.554688 5.527344 -39.785156 9.578125 -39.785156 Z M 10.535156 0.664062 C 13.851562 0.664062 15.621094 -0.292969 15.621094 -0.292969 C 15.621094 -0.292969 15.03125 -1.253906 15.03125 -4.640625 L 15.03125 -28.953125 C 15.03125 -32.492188 13.113281 -33.816406 8.695312 -33.816406 C 5.378906 -33.816406 3.683594 -32.933594 3.683594 -32.933594 C 3.683594 -32.933594 4.199219 -31.976562 4.199219 -28.511719 L 4.199219 -4.347656 C 4.199219 -0.738281 6.113281 0.664062 10.535156 0.664062 Z M 10.535156 0.664062 "/></g></g></g><g fill="#273755" fill-opacity="1"><g transform="translate(583.403457, 821.981557)"><g><path d="M 10.460938 0.664062 C 13.777344 0.664062 15.546875 -0.292969 15.546875 -0.292969 C 15.546875 -0.292969 15.03125 -1.253906 15.03125 -4.640625 L 15.03125 -45.53125 C 15.03125 -49.066406 13.039062 -50.394531 8.695312 -50.394531 C 5.378906 -50.394531 3.609375 -49.511719 3.609375 -49.511719 C 3.609375 -49.511719 4.199219 -48.550781 4.199219 -45.089844 L 4.199219 -4.347656 C 4.199219 -0.738281 6.113281 0.664062 10.460938 0.664062 Z M 10.460938 0.664062 "/></g></g></g><g fill="#273755" fill-opacity="1"><g transform="translate(604.024817, 821.981557)"><g><path d="M 9.578125 -39.785156 C 13.703125 -39.785156 15.914062 -41.554688 15.914062 -45.089844 C 15.914062 -48.773438 13.703125 -50.394531 9.578125 -50.394531 C 5.527344 -50.394531 3.242188 -48.773438 3.242188 -45.089844 C 3.242188 -41.554688 5.527344 -39.785156 9.578125 -39.785156 Z M 10.535156 0.664062 C 13.851562 0.664062 15.621094 -0.292969 15.621094 -0.292969 C 15.621094 -0.292969 15.03125 -1.253906 15.03125 -4.640625 L 15.03125 -28.953125 C 15.03125 -32.492188 13.113281 -33.816406 8.695312 -33.816406 C 5.378906 -33.816406 3.683594 -32.933594 3.683594 -32.933594 C 3.683594 -32.933594 4.199219 -31.976562 4.199219 -28.511719 L 4.199219 -4.347656 C 4.199219 -0.738281 6.113281 0.664062 10.535156 0.664062 Z M 10.535156 0.664062 "/></g></g></g><g fill="#273755" fill-opacity="1"><g transform="translate(624.719821, 821.981557)"><g><path d="M 36.394531 -45.53125 C 36.394531 -49.066406 34.480469 -50.394531 30.132812 -50.394531 C 26.816406 -50.394531 25.050781 -49.511719 25.050781 -49.511719 C 25.050781 -49.511719 25.566406 -48.550781 25.566406 -45.089844 L 25.566406 -33.597656 C 24.164062 -33.742188 22.542969 -33.816406 20.851562 -33.816406 C 10.09375 -33.816406 2.800781 -28.144531 2.800781 -15.621094 C 2.800781 -5.011719 7.21875 0.664062 16.355469 0.664062 C 20.261719 0.664062 23.503906 -0.664062 25.566406 -4.273438 C 25.640625 -0.738281 27.554688 0.664062 31.902344 0.664062 C 35.21875 0.664062 36.984375 -0.292969 36.984375 -0.292969 C 36.984375 -0.292969 36.394531 -1.253906 36.394531 -4.640625 Z M 19.671875 -7.148438 C 15.765625 -7.148438 13.628906 -9.871094 13.628906 -15.621094 C 13.628906 -22.914062 16.503906 -26.15625 21.808594 -26.15625 C 23.207031 -26.15625 24.460938 -26.082031 25.566406 -25.859375 L 25.566406 -16.578125 C 25.566406 -9.578125 23.132812 -7.148438 19.671875 -7.148438 Z M 19.671875 -7.148438 "/></g></g></g><g fill="#273755" fill-opacity="1"><g transform="translate(666.771672, 821.981557)"><g><path d="M 34.773438 -21.808594 C 34.773438 -29.617188 29.691406 -33.890625 18.125 -33.890625 C 8.621094 -33.890625 4.496094 -30.722656 4.496094 -26.523438 C 4.496094 -23.796875 5.597656 -22.691406 5.597656 -22.691406 C 5.597656 -22.691406 7.957031 -26.597656 14.734375 -26.597656 C 20.851562 -26.597656 23.945312 -24.238281 23.945312 -19.671875 L 23.945312 -18.34375 C 21.808594 -19.449219 18.859375 -20.40625 14.734375 -20.40625 C 7.148438 -20.40625 2.800781 -16.578125 2.800781 -9.726562 C 2.800781 -3.019531 6.777344 0.664062 14.441406 0.664062 C 18.640625 0.664062 21.957031 -0.738281 24.019531 -3.460938 C 24.3125 -0.515625 26.300781 0.664062 30.355469 0.664062 C 33.597656 0.664062 35.363281 -0.367188 35.363281 -0.367188 C 35.363281 -0.367188 34.773438 -1.253906 34.773438 -4.714844 Z M 18.566406 -6.628906 C 15.324219 -6.628906 13.703125 -7.957031 13.703125 -10.609375 C 13.703125 -13.113281 15.691406 -14.515625 19.304688 -14.515625 C 21.292969 -14.515625 22.839844 -14.144531 23.945312 -13.703125 L 23.945312 -12.304688 C 23.945312 -8.546875 21.734375 -6.628906 18.566406 -6.628906 Z M 18.566406 -6.628906 "/></g></g></g><g fill="#273755" fill-opacity="1"><g transform="translate(707.203327, 821.981557)"><g><path d="M 36.394531 -45.53125 C 36.394531 -49.066406 34.480469 -50.394531 30.132812 -50.394531 C 26.816406 -50.394531 25.050781 -49.511719 25.050781 -49.511719 C 25.050781 -49.511719 25.566406 -48.550781 25.566406 -45.089844 L 25.566406 -33.597656 C 24.164062 -33.742188 22.542969 -33.816406 20.851562 -33.816406 C 10.09375 -33.816406 2.800781 -28.144531 2.800781 -15.621094 C 2.800781 -5.011719 7.21875 0.664062 16.355469 0.664062 C 20.261719 0.664062 23.503906 -0.664062 25.566406 -4.273438 C 25.640625 -0.738281 27.554688 0.664062 31.902344 0.664062 C 35.21875 0.664062 36.984375 -0.292969 36.984375 -0.292969 C 36.984375 -0.292969 36.394531 -1.253906 36.394531 -4.640625 Z M 19.671875 -7.148438 C 15.765625 -7.148438 13.628906 -9.871094 13.628906 -15.621094 C 13.628906 -22.914062 16.503906 -26.15625 21.808594 -26.15625 C 23.207031 -26.15625 24.460938 -26.082031 25.566406 -25.859375 L 25.566406 -16.578125 C 25.566406 -9.578125 23.132812 -7.148438 19.671875 -7.148438 Z M 19.671875 -7.148438 "/></g></g></g><g fill="#273755" fill-opacity="1"><g transform="translate(749.255142, 821.981557)"><g><path d="M 35.070312 -16.503906 C 35.070312 -28.511719 29.914062 -33.890625 19.375 -33.890625 C 9.28125 -33.890625 2.800781 -28.511719 2.800781 -16.652344 C 2.800781 -4.789062 10.316406 0.664062 20.703125 0.664062 C 28.660156 0.664062 33.597656 -2.503906 33.597656 -6.777344 C 33.597656 -9.355469 32.636719 -10.386719 32.636719 -10.386719 C 32.636719 -10.386719 30.429688 -6.628906 24.460938 -6.628906 C 19.007812 -6.628906 15.472656 -9.0625 14.367188 -13.628906 L 31.828125 -13.628906 C 34.039062 -13.628906 35.070312 -14.808594 35.070312 -16.503906 Z M 19.671875 -26.597656 C 22.691406 -26.597656 24.679688 -24.902344 25.195312 -19.523438 L 14 -19.523438 C 14.515625 -24.902344 16.722656 -26.597656 19.671875 -26.597656 Z M 19.671875 -26.597656 "/></g></g></g><g fill="#273755" fill-opacity="1"><g transform="translate(788.582141, 821.981557)"><g><path d="M 17.902344 0.664062 C 28.4375 0.664062 33.449219 -2.652344 33.449219 -10.460938 C 33.449219 -16.136719 30.355469 -18.859375 24.09375 -19.890625 L 17.683594 -20.925781 C 15.546875 -21.292969 14.585938 -22.324219 14.585938 -23.722656 C 14.585938 -25.710938 15.988281 -26.597656 19.671875 -26.597656 C 27.332031 -26.597656 31.015625 -23.578125 31.015625 -23.578125 C 31.015625 -23.578125 31.902344 -24.902344 31.902344 -27.703125 C 31.902344 -31.238281 28.4375 -33.890625 17.535156 -33.890625 C 8.03125 -33.890625 3.757812 -30.355469 3.757812 -23.578125 C 3.757812 -18.199219 6.628906 -14.515625 13.554688 -13.484375 L 20.554688 -12.304688 C 22.617188 -11.933594 23.648438 -11.125 23.648438 -9.652344 C 23.648438 -7.441406 21.957031 -6.628906 18.34375 -6.628906 C 7.515625 -6.628906 3.976562 -10.535156 3.976562 -10.535156 C 3.976562 -10.535156 2.800781 -9.28125 2.800781 -6.410156 C 2.800781 -2.429688 6.335938 0.664062 17.902344 0.664062 Z M 17.902344 0.664062 "/></g></g></g><g fill="#273755" fill-opacity="1"><g transform="translate(826.288978, 821.981557)"><g/></g></g><g fill="#273755" fill-opacity="1"><g transform="translate(846.983947, 821.981557)"><g><path d="M 36.46875 -31.535156 C 36.46875 -31.535156 32.566406 -33.816406 20.851562 -33.816406 C 10.09375 -33.816406 2.800781 -28.144531 2.800781 -15.621094 C 2.800781 -5.011719 7.292969 0.664062 16.355469 0.664062 C 20.261719 0.664062 23.578125 -0.664062 25.640625 -4.273438 L 25.640625 12.304688 C 25.640625 15.839844 27.554688 17.238281 31.902344 17.238281 C 35.21875 17.238281 36.984375 16.28125 36.984375 16.28125 C 36.984375 16.28125 36.46875 15.324219 36.46875 11.933594 Z M 19.671875 -7.148438 C 15.765625 -7.148438 13.628906 -9.871094 13.628906 -15.621094 C 13.628906 -22.914062 16.578125 -26.15625 21.882812 -26.15625 C 23.503906 -26.15625 24.753906 -25.933594 25.640625 -25.710938 L 25.640625 -16.578125 C 25.640625 -9.578125 23.207031 -7.148438 19.671875 -7.148438 Z M 19.671875 -7.148438 "/></g></g></g><g fill="#273755" fill-opacity="1"><g transform="translate(889.109405, 821.981557)"><g><path d="M 36.175781 -28.953125 C 36.175781 -32.492188 34.183594 -33.816406 29.765625 -33.816406 C 26.523438 -33.816406 24.753906 -32.933594 24.753906 -32.933594 C 24.753906 -32.933594 25.34375 -31.976562 25.34375 -28.511719 L 25.34375 -20.777344 C 25.34375 -10.167969 22.765625 -7.148438 19.230469 -7.148438 C 16.355469 -7.148438 15.03125 -8.546875 15.03125 -11.417969 L 15.03125 -28.953125 C 15.03125 -32.492188 13.039062 -33.816406 8.695312 -33.816406 C 5.378906 -33.816406 3.609375 -32.933594 3.609375 -32.933594 C 3.609375 -32.933594 4.199219 -31.976562 4.199219 -28.511719 L 4.199219 -9.578125 C 4.199219 -2.726562 7.21875 0.664062 14.070312 0.664062 C 19.082031 0.664062 22.988281 -1.324219 25.34375 -6.335938 L 25.34375 -4.347656 C 25.34375 -0.738281 27.1875 0.664062 31.605469 0.664062 C 34.921875 0.664062 36.691406 -0.292969 36.691406 -0.292969 C 36.691406 -0.292969 36.175781 -1.253906 36.175781 -4.640625 Z M 36.175781 -28.953125 "/></g></g></g><g fill="#273755" fill-opacity="1"><g transform="translate(930.86668, 821.981557)"><g><path d="M 35.070312 -16.503906 C 35.070312 -28.511719 29.914062 -33.890625 19.375 -33.890625 C 9.28125 -33.890625 2.800781 -28.511719 2.800781 -16.652344 C 2.800781 -4.789062 10.316406 0.664062 20.703125 0.664062 C 28.660156 0.664062 33.597656 -2.503906 33.597656 -6.777344 C 33.597656 -9.355469 32.636719 -10.386719 32.636719 -10.386719 C 32.636719 -10.386719 30.429688 -6.628906 24.460938 -6.628906 C 19.007812 -6.628906 15.472656 -9.0625 14.367188 -13.628906 L 31.828125 -13.628906 C 34.039062 -13.628906 35.070312 -14.808594 35.070312 -16.503906 Z M 19.671875 -26.597656 C 22.691406 -26.597656 24.679688 -24.902344 25.195312 -19.523438 L 14 -19.523438 C 14.515625 -24.902344 16.722656 -26.597656 19.671875 -26.597656 Z M 19.671875 -26.597656 "/></g></g></g><g fill="#273755" fill-opacity="1"><g transform="translate(233.035759, 911.99887)"><g><path d="M 26.746094 -9.726562 C 26.746094 -9.726562 25.417969 -7.148438 21.292969 -7.148438 C 17.167969 -7.148438 15.03125 -9.355469 15.03125 -14 L 15.03125 -25.417969 L 23.207031 -25.417969 C 23.207031 -25.417969 24.164062 -26.082031 24.164062 -28.953125 C 24.164062 -32.050781 22.617188 -33.152344 21.292969 -33.152344 L 15.03125 -33.152344 L 15.03125 -38.828125 C 15.03125 -42.4375 13.039062 -43.761719 8.695312 -43.761719 C 5.378906 -43.761719 3.609375 -42.804688 3.609375 -42.804688 C 3.609375 -42.804688 4.199219 -41.847656 4.199219 -38.457031 L 4.199219 -11.566406 C 4.199219 -3.976562 8.25 0.664062 17.167969 0.664062 C 23.871094 0.664062 27.628906 -2.210938 27.628906 -6.703125 C 27.628906 -9.136719 26.746094 -9.726562 26.746094 -9.726562 Z M 26.746094 -9.726562 "/></g></g></g><g fill="#273755" fill-opacity="1"><g transform="translate(262.862646, 911.99887)"><g><path d="M 35.070312 -16.503906 C 35.070312 -28.511719 29.914062 -33.890625 19.375 -33.890625 C 9.28125 -33.890625 2.800781 -28.511719 2.800781 -16.652344 C 2.800781 -4.789062 10.316406 0.664062 20.703125 0.664062 C 28.660156 0.664062 33.597656 -2.503906 33.597656 -6.777344 C 33.597656 -9.355469 32.636719 -10.386719 32.636719 -10.386719 C 32.636719 -10.386719 30.429688 -6.628906 24.460938 -6.628906 C 19.007812 -6.628906 15.472656 -9.0625 14.367188 -13.628906 L 31.828125 -13.628906 C 34.039062 -13.628906 35.070312 -14.808594 35.070312 -16.503906 Z M 19.671875 -26.597656 C 22.691406 -26.597656 24.679688 -24.902344 25.195312 -19.523438 L 14 -19.523438 C 14.515625 -24.902344 16.722656 -26.597656 19.671875 -26.597656 Z M 19.671875 -26.597656 "/></g></g></g><g fill="#273755" fill-opacity="1"><g transform="translate(322.884636, 911.99887)"><g><path d="M 20.480469 0.664062 C 32.34375 0.664062 38.089844 -5.378906 38.089844 -16.652344 C 38.089844 -27.921875 32.34375 -33.890625 20.480469 -33.890625 C 8.546875 -33.890625 2.800781 -27.921875 2.800781 -16.652344 C 2.800781 -5.378906 8.546875 0.664062 20.480469 0.664062 Z M 20.480469 -7.148438 C 15.914062 -7.148438 13.703125 -10.167969 13.703125 -16.652344 C 13.703125 -23.132812 15.914062 -26.15625 20.480469 -26.15625 C 24.976562 -26.15625 27.261719 -23.132812 27.261719 -16.652344 C 27.261719 -10.167969 24.976562 -7.148438 20.480469 -7.148438 Z M 20.480469 -7.148438 "/></g></g></g><g fill="#273755" fill-opacity="1"><g transform="translate(365.231061, 911.99887)"><g><path d="M 18.199219 -50.394531 C 8.695312 -50.394531 4.199219 -45.3125 4.199219 -37.058594 L 4.199219 -4.273438 C 4.199219 -0.664062 6.113281 0.664062 10.535156 0.664062 C 13.777344 0.664062 15.621094 -0.292969 15.621094 -0.292969 C 15.621094 -0.292969 15.03125 -1.253906 15.03125 -4.640625 L 15.03125 -25.417969 L 23.648438 -25.417969 C 23.648438 -25.417969 24.609375 -26.082031 24.609375 -28.953125 C 24.609375 -32.050781 22.988281 -33.152344 19.820312 -33.152344 L 15.03125 -33.152344 L 15.03125 -36.027344 C 15.03125 -39.859375 17.238281 -42.660156 22.101562 -42.660156 C 27.996094 -42.660156 29.691406 -39.5625 29.691406 -39.5625 C 29.691406 -39.5625 30.574219 -40.152344 30.574219 -42.511719 C 30.574219 -47.078125 26.449219 -50.394531 18.199219 -50.394531 Z M 18.199219 -50.394531 "/></g></g></g><g fill="#273755" fill-opacity="1"><g transform="translate(398.003736, 911.99887)"><g><path d="M 22.25 -33.816406 C 18.714844 -33.816406 16.0625 -32.121094 14.367188 -28.808594 L 14.367188 -28.953125 C 14.367188 -32.492188 12.453125 -33.816406 8.03125 -33.816406 C 4.714844 -33.816406 3.019531 -32.933594 3.019531 -32.933594 C 3.019531 -32.933594 3.535156 -31.976562 3.535156 -28.511719 L 3.535156 -4.347656 C 3.535156 -0.738281 5.453125 0.664062 9.871094 0.664062 C 13.113281 0.664062 14.957031 -0.292969 14.957031 -0.292969 C 14.957031 -0.292969 14.367188 -1.253906 14.367188 -4.640625 L 14.367188 -14.660156 C 14.367188 -22.617188 17.683594 -26.15625 22.472656 -26.15625 C 26.15625 -26.15625 27.703125 -24.386719 27.703125 -24.386719 C 27.703125 -24.386719 28.660156 -25.417969 28.660156 -28.144531 C 28.660156 -31.828125 26.375 -33.816406 22.25 -33.816406 Z M 22.25 -33.816406 "/></g></g></g><g fill="#273755" fill-opacity="1"><g transform="translate(428.86164, 911.99887)"><g><path d="M 35.070312 -16.503906 C 35.070312 -28.511719 29.914062 -33.890625 19.375 -33.890625 C 9.28125 -33.890625 2.800781 -28.511719 2.800781 -16.652344 C 2.800781 -4.789062 10.316406 0.664062 20.703125 0.664062 C 28.660156 0.664062 33.597656 -2.503906 33.597656 -6.777344 C 33.597656 -9.355469 32.636719 -10.386719 32.636719 -10.386719 C 32.636719 -10.386719 30.429688 -6.628906 24.460938 -6.628906 C 19.007812 -6.628906 15.472656 -9.0625 14.367188 -13.628906 L 31.828125 -13.628906 C 34.039062 -13.628906 35.070312 -14.808594 35.070312 -16.503906 Z M 19.671875 -26.597656 C 22.691406 -26.597656 24.679688 -24.902344 25.195312 -19.523438 L 14 -19.523438 C 14.515625 -24.902344 16.722656 -26.597656 19.671875 -26.597656 Z M 19.671875 -26.597656 "/></g></g></g><g fill="#273755" fill-opacity="1"><g transform="translate(468.188639, 911.99887)"><g><path d="M 20.996094 0.664062 C 29.839844 0.664062 35.070312 -3.09375 35.070312 -7.808594 C 35.070312 -10.09375 33.890625 -11.199219 33.890625 -11.199219 C 33.890625 -11.199219 30.574219 -7.148438 23.648438 -7.148438 C 17.460938 -7.148438 13.925781 -10.316406 13.925781 -16.652344 C 13.925781 -23.355469 17.460938 -26.15625 23.648438 -26.15625 C 30.574219 -26.15625 33.890625 -22.027344 33.890625 -22.027344 C 33.890625 -22.027344 35.070312 -22.988281 35.070312 -25.933594 C 35.070312 -30.207031 30.058594 -33.890625 20.996094 -33.890625 C 9.871094 -33.890625 2.800781 -28.585938 2.800781 -16.652344 C 2.800781 -4.714844 9.726562 0.664062 20.996094 0.664062 Z M 20.996094 0.664062 "/></g></g></g><g fill="#273755" fill-opacity="1"><g transform="translate(507.515639, 911.99887)"><g><path d="M 35.070312 -16.503906 C 35.070312 -28.511719 29.914062 -33.890625 19.375 -33.890625 C 9.28125 -33.890625 2.800781 -28.511719 2.800781 -16.652344 C 2.800781 -4.789062 10.316406 0.664062 20.703125 0.664062 C 28.660156 0.664062 33.597656 -2.503906 33.597656 -6.777344 C 33.597656 -9.355469 32.636719 -10.386719 32.636719 -10.386719 C 32.636719 -10.386719 30.429688 -6.628906 24.460938 -6.628906 C 19.007812 -6.628906 15.472656 -9.0625 14.367188 -13.628906 L 31.828125 -13.628906 C 34.039062 -13.628906 35.070312 -14.808594 35.070312 -16.503906 Z M 19.671875 -26.597656 C 22.691406 -26.597656 24.679688 -24.902344 25.195312 -19.523438 L 14 -19.523438 C 14.515625 -24.902344 16.722656 -26.597656 19.671875 -26.597656 Z M 19.671875 -26.597656 "/></g></g></g><g fill="#273755" fill-opacity="1"><g transform="translate(567.537624, 911.99887)"><g><path d="M 53.855469 -47.152344 C 49.65625 -47.152344 47.375 -45.605469 47.078125 -42.363281 L 41.699219 -13.410156 L 36.46875 -42.363281 C 36.101562 -45.828125 33.667969 -47.152344 29.839844 -47.152344 C 25.933594 -47.152344 23.648438 -45.828125 23.28125 -42.363281 L 18.199219 -14.21875 L 13.039062 -42.363281 C 12.671875 -45.605469 10.386719 -47.152344 6.261719 -47.152344 C 2.726562 -47.152344 0.738281 -46.195312 0.738281 -46.195312 C 0.738281 -46.195312 1.546875 -44.648438 1.84375 -41.921875 L 8.472656 -4.199219 C 8.839844 -0.664062 12.007812 0.664062 16.722656 0.664062 C 21.511719 0.664062 24.019531 -0.664062 24.386719 -4.199219 L 29.914062 -34.480469 L 35.363281 -4.199219 C 35.734375 -0.882812 38.386719 0.664062 44.132812 0.664062 C 49.511719 0.664062 51.203125 -0.882812 51.648438 -4.199219 L 58.203125 -41.921875 C 58.570312 -44.648438 59.234375 -46.195312 59.234375 -46.195312 C 59.234375 -46.195312 57.394531 -47.152344 53.855469 -47.152344 Z M 53.855469 -47.152344 "/></g></g></g><g fill="#273755" fill-opacity="1"><g transform="translate(628.957905, 911.99887)"><g><path d="M 9.578125 -39.785156 C 13.703125 -39.785156 15.914062 -41.554688 15.914062 -45.089844 C 15.914062 -48.773438 13.703125 -50.394531 9.578125 -50.394531 C 5.527344 -50.394531 3.242188 -48.773438 3.242188 -45.089844 C 3.242188 -41.554688 5.527344 -39.785156 9.578125 -39.785156 Z M 10.535156 0.664062 C 13.851562 0.664062 15.621094 -0.292969 15.621094 -0.292969 C 15.621094 -0.292969 15.03125 -1.253906 15.03125 -4.640625 L 15.03125 -28.953125 C 15.03125 -32.492188 13.113281 -33.816406 8.695312 -33.816406 C 5.378906 -33.816406 3.683594 -32.933594 3.683594 -32.933594 C 3.683594 -32.933594 4.199219 -31.976562 4.199219 -28.511719 L 4.199219 -4.347656 C 4.199219 -0.738281 6.113281 0.664062 10.535156 0.664062 Z M 10.535156 0.664062 "/></g></g></g><g fill="#273755" fill-opacity="1"><g transform="translate(649.652909, 911.99887)"><g><path d="M 17.902344 0.664062 C 28.4375 0.664062 33.449219 -2.652344 33.449219 -10.460938 C 33.449219 -16.136719 30.355469 -18.859375 24.09375 -19.890625 L 17.683594 -20.925781 C 15.546875 -21.292969 14.585938 -22.324219 14.585938 -23.722656 C 14.585938 -25.710938 15.988281 -26.597656 19.671875 -26.597656 C 27.332031 -26.597656 31.015625 -23.578125 31.015625 -23.578125 C 31.015625 -23.578125 31.902344 -24.902344 31.902344 -27.703125 C 31.902344 -31.238281 28.4375 -33.890625 17.535156 -33.890625 C 8.03125 -33.890625 3.757812 -30.355469 3.757812 -23.578125 C 3.757812 -18.199219 6.628906 -14.515625 13.554688 -13.484375 L 20.554688 -12.304688 C 22.617188 -11.933594 23.648438 -11.125 23.648438 -9.652344 C 23.648438 -7.441406 21.957031 -6.628906 18.34375 -6.628906 C 7.515625 -6.628906 3.976562 -10.535156 3.976562 -10.535156 C 3.976562 -10.535156 2.800781 -9.28125 2.800781 -6.410156 C 2.800781 -2.429688 6.335938 0.664062 17.902344 0.664062 Z M 17.902344 0.664062 "/></g></g></g><g fill="#273755" fill-opacity="1"><g transform="translate(687.359746, 911.99887)"><g><path d="M 35.070312 -16.503906 C 35.070312 -28.511719 29.914062 -33.890625 19.375 -33.890625 C 9.28125 -33.890625 2.800781 -28.511719 2.800781 -16.652344 C 2.800781 -4.789062 10.316406 0.664062 20.703125 0.664062 C 28.660156 0.664062 33.597656 -2.503906 33.597656 -6.777344 C 33.597656 -9.355469 32.636719 -10.386719 32.636719 -10.386719 C 32.636719 -10.386719 30.429688 -6.628906 24.460938 -6.628906 C 19.007812 -6.628906 15.472656 -9.0625 14.367188 -13.628906 L 31.828125 -13.628906 C 34.039062 -13.628906 35.070312 -14.808594 35.070312 -16.503906 Z M 19.671875 -26.597656 C 22.691406 -26.597656 24.679688 -24.902344 25.195312 -19.523438 L 14 -19.523438 C 14.515625 -24.902344 16.722656 -26.597656 19.671875 -26.597656 Z M 19.671875 -26.597656 "/></g></g></g><g fill="#273755" fill-opacity="1"><g transform="translate(726.686746, 911.99887)"><g><path d="M 5.96875 -46.414062 C 3.09375 -46.414062 1.695312 -47.003906 1.695312 -47.003906 C 1.695312 -47.003906 0.738281 -45.898438 0.738281 -43.027344 C 0.738281 -39.859375 2.359375 -38.3125 5.597656 -38.3125 L 15.546875 -38.3125 L 15.546875 -4.347656 C 15.546875 -0.738281 17.902344 0.664062 22.25 0.664062 C 25.566406 0.664062 27.332031 -0.292969 27.332031 -0.292969 C 27.332031 -0.292969 26.816406 -1.253906 26.816406 -4.640625 L 26.816406 -38.3125 L 36.320312 -38.3125 C 39.269531 -38.3125 40.667969 -37.796875 40.667969 -37.796875 C 40.667969 -37.796875 41.625 -38.828125 41.625 -41.773438 C 41.625 -44.941406 39.933594 -46.414062 36.691406 -46.414062 Z M 5.96875 -46.414062 "/></g></g></g><g fill="#273755" fill-opacity="1"><g transform="translate(770.506045, 911.99887)"><g><path d="M 9.578125 -39.785156 C 13.703125 -39.785156 15.914062 -41.554688 15.914062 -45.089844 C 15.914062 -48.773438 13.703125 -50.394531 9.578125 -50.394531 C 5.527344 -50.394531 3.242188 -48.773438 3.242188 -45.089844 C 3.242188 -41.554688 5.527344 -39.785156 9.578125 -39.785156 Z M 10.535156 0.664062 C 13.851562 0.664062 15.621094 -0.292969 15.621094 -0.292969 C 15.621094 -0.292969 15.03125 -1.253906 15.03125 -4.640625 L 15.03125 -28.953125 C 15.03125 -32.492188 13.113281 -33.816406 8.695312 -33.816406 C 5.378906 -33.816406 3.683594 -32.933594 3.683594 -32.933594 C 3.683594 -32.933594 4.199219 -31.976562 4.199219 -28.511719 L 4.199219 -4.347656 C 4.199219 -0.738281 6.113281 0.664062 10.535156 0.664062 Z M 10.535156 0.664062 "/></g></g></g><g fill="#273755" fill-opacity="1"><g transform="translate(791.201049, 911.99887)"><g><path d="M 57.320312 -23.648438 C 57.320312 -30.5 54.300781 -33.816406 47.375 -33.816406 C 42.289062 -33.816406 38.3125 -31.753906 35.953125 -26.449219 C 35.21875 -31.386719 32.121094 -33.816406 26.230469 -33.816406 C 21.292969 -33.816406 17.386719 -31.902344 15.03125 -26.890625 L 15.03125 -28.953125 C 15.03125 -32.492188 13.039062 -33.816406 8.695312 -33.816406 C 5.378906 -33.816406 3.609375 -32.933594 3.609375 -32.933594 C 3.609375 -32.933594 4.199219 -31.976562 4.199219 -28.511719 L 4.199219 -4.347656 C 4.199219 -0.738281 6.113281 0.664062 10.460938 0.664062 C 13.777344 0.664062 15.546875 -0.292969 15.546875 -0.292969 C 15.546875 -0.292969 15.03125 -1.253906 15.03125 -4.640625 L 15.03125 -12.453125 C 15.03125 -23.058594 17.535156 -26.15625 21.070312 -26.15625 C 23.945312 -26.15625 25.34375 -24.679688 25.34375 -21.808594 L 25.34375 -4.347656 C 25.34375 -0.738281 27.1875 0.664062 31.605469 0.664062 C 34.921875 0.664062 36.691406 -0.292969 36.691406 -0.292969 C 36.691406 -0.292969 36.175781 -1.253906 36.175781 -4.640625 L 36.175781 -12.453125 C 36.175781 -23.058594 38.679688 -26.15625 42.214844 -26.15625 C 45.089844 -26.15625 46.414062 -24.679688 46.414062 -21.808594 L 46.414062 -4.347656 C 46.414062 -0.738281 48.332031 0.664062 52.75 0.664062 C 55.992188 0.664062 57.835938 -0.292969 57.835938 -0.292969 C 57.835938 -0.292969 57.320312 -1.253906 57.320312 -4.640625 Z M 57.320312 -23.648438 "/></g></g></g><g fill="#273755" fill-opacity="1"><g transform="translate(854.094171, 911.99887)"><g><path d="M 35.070312 -16.503906 C 35.070312 -28.511719 29.914062 -33.890625 19.375 -33.890625 C 9.28125 -33.890625 2.800781 -28.511719 2.800781 -16.652344 C 2.800781 -4.789062 10.316406 0.664062 20.703125 0.664062 C 28.660156 0.664062 33.597656 -2.503906 33.597656 -6.777344 C 33.597656 -9.355469 32.636719 -10.386719 32.636719 -10.386719 C 32.636719 -10.386719 30.429688 -6.628906 24.460938 -6.628906 C 19.007812 -6.628906 15.472656 -9.0625 14.367188 -13.628906 L 31.828125 -13.628906 C 34.039062 -13.628906 35.070312 -14.808594 35.070312 -16.503906 Z M 19.671875 -26.597656 C 22.691406 -26.597656 24.679688 -24.902344 25.195312 -19.523438 L 14 -19.523438 C 14.515625 -24.902344 16.722656 -26.597656 19.671875 -26.597656 Z M 19.671875 -26.597656 "/></g></g></g><g mask="url(#6144b32fb2)"><g transform="matrix(1, 0, 0, 1, 747, 288)"><g clip-path="url(#4c5cdcd61d)"><g clip-path="url(#f927e9ed1d)"><path fill="#ffd456" d="M 113.394531 0.34375 C 51.054688 0.34375 0.519531 50.882812 0.519531 113.21875 C 0.519531 175.558594 51.054688 226.09375 113.394531 226.09375 C 175.734375 226.09375 226.269531 175.558594 226.269531 113.21875 C 226.269531 50.882812 175.734375 0.34375 113.394531 0.34375 " fill-opacity="1" fill-rule="nonzero"/></g></g></g></g><g mask="url(#45685fb918)"><g transform="matrix(1, 0, 0, 1, 230, 985)"><g clip-path="url(#471ba4300f)"><g clip-path="url(#d19571fcd2)"><path fill="#b49cf4" d="M 113.171875 0.84375 C 50.835938 0.84375 0.296875 51.382812 0.296875 113.71875 C 0.296875 176.058594 50.835938 226.59375 113.171875 226.59375 C 175.511719 226.59375 226.046875 176.058594 226.046875 113.71875 C 226.046875 51.382812 175.511719 0.84375 113.171875 0.84375 " fill-opacity="1" fill-rule="nonzero"/></g></g></g></g><g mask="url(#fd392f1d44)"><g transform="matrix(1, 0, 0, 1, 42, 358)"><g clip-path="url(#544c9df0e2)"><g clip-path="url(#a81bf19c91)"><path fill="#ffd456" d="M 58.976562 0.734375 C 26.875 0.734375 0.851562 26.757812 0.851562 58.859375 C 0.851562 90.960938 26.875 116.984375 58.976562 116.984375 C 91.078125 116.984375 117.101562 90.960938 117.101562 58.859375 C 117.101562 26.757812 91.078125 0.734375 58.976562 0.734375 " fill-opacity="1" fill-rule="nonzero"/></g></g></g></g><g mask="url(#cc746858e3)"><g transform="matrix(1, 0, 0, 1, 988, 1033)"><g clip-path="url(#3156e0a8aa)"><g clip-path="url(#c8fd1b027a)"><path fill="#b49cf4" d="M 66.246094 0.300781 C 30.003906 0.300781 0.621094 29.683594 0.621094 65.925781 C 0.621094 102.167969 30.003906 131.550781 66.246094 131.550781 C 102.492188 131.550781 131.871094 102.167969 131.871094 65.925781 C 131.871094 29.683594 102.492188 0.300781 66.246094 0.300781 " fill-opacity="1" fill-rule="nonzero"/></g></g></g></g><g mask="url(#9a2ce87538)"><g transform="matrix(1, 0, 0, 1, 111, 0.000000000000112861)"><g clip-path="url(#4ac8f3ae06)"><g clip-path="url(#93887d1156)"><path fill="#b49cf4" d="M 113.230469 0 C 50.890625 0 0.355469 50.535156 0.355469 112.875 C 0.355469 175.214844 50.890625 225.75 113.230469 225.75 C 175.570312 225.75 226.105469 175.214844 226.105469 112.875 C 226.105469 50.535156 175.570312 0 113.230469 0 " fill-opacity="1" fill-rule="nonzero"/></g></g></g></g><g mask="url(#5344fe5228)"><g transform="matrix(1, 0, 0, 1, 580, 54)"><g clip-path="url(#c0301eb7ed)"><g clip-path="url(#d1b3943666)"><path fill="#b49cf4" d="M 58.667969 0.519531 C 26.566406 0.519531 0.542969 26.542969 0.542969 58.644531 C 0.542969 90.746094 26.566406 116.769531 58.667969 116.769531 C 90.769531 116.769531 116.792969 90.746094 116.792969 58.644531 C 116.792969 26.542969 90.769531 0.519531 58.667969 0.519531 " fill-opacity="1" fill-rule="nonzero"/></g></g></g></g><g mask="url(#56ff32f2c4)"><g transform="matrix(1, 0, 0, 1, 93, 1321)"><g clip-path="url(#5086a55381)"><g clip-path="url(#a3db6e2d8b)"><path fill="#72d2cb" d="M 65.988281 1.050781 C 29.742188 1.050781 0.363281 30.433594 0.363281 66.675781 C 0.363281 102.917969 29.742188 132.300781 65.988281 132.300781 C 102.230469 132.300781 131.613281 102.917969 131.613281 66.675781 C 131.613281 30.433594 102.230469 1.050781 65.988281 1.050781 " fill-opacity="1" fill-rule="nonzero"/></g></g></g></g><g mask="url(#f913cf308f)"><g transform="matrix(1, 0, 0, 1, 507, 1285)"><g clip-path="url(#0362820ddf)"><g clip-path="url(#0f84b354c9)"><path fill="#ffd456" d="M 66.246094 0.804688 C 30.003906 0.804688 0.621094 30.1875 0.621094 66.429688 C 0.621094 102.675781 30.003906 132.054688 66.246094 132.054688 C 102.492188 132.054688 131.871094 102.675781 131.871094 66.429688 C 131.871094 30.1875 102.492188 0.804688 66.246094 0.804688 " fill-opacity="1" fill-rule="nonzero"/></g></g></g></g><g mask="url(#49c8ac7d44)"><g transform="matrix(1, 0, 0, 1, 871, 1271)"><g clip-path="url(#b943700b42)"><g clip-path="url(#ccec9e0b8f)"><path fill="#72d2cb" d="M 58.722656 0.542969 C 26.621094 0.542969 0.597656 26.566406 0.597656 58.667969 C 0.597656 90.769531 26.621094 116.792969 58.722656 116.792969 C 90.824219 116.792969 116.847656 90.769531 116.847656 58.667969 C 116.847656 26.566406 90.824219 0.542969 58.722656 0.542969 " fill-opacity="1" fill-rule="nonzero"/></g></g></g></g><g mask="url(#bf9bc435a0)"><g transform="matrix(1, 0, 0, 1, 988, 54)"><g clip-path="url(#5f351398a1)"><g clip-path="url(#5322f04999)"><path fill="#ffd456" d="M 58.746094 0.519531 C 26.644531 0.519531 0.621094 26.542969 0.621094 58.644531 C 0.621094 90.746094 26.644531 116.769531 58.746094 116.769531 C 90.847656 116.769531 116.871094 90.746094 116.871094 58.644531 C 116.871094 26.542969 90.847656 0.519531 58.746094 0.519531 " fill-opacity="1" fill-rule="nonzero"/></g></g></g></g><g mask="url(#53e82f24de)"><g transform="matrix(1, 0, 0, 1, 0, 975)"><g clip-path="url(#59ea0f9690)"><g clip-path="url(#fba47475fb)"><path fill="#ffd456" d="M 58.125 0.320312 C 26.023438 0.320312 0 26.34375 0 58.445312 C 0 90.546875 26.023438 116.570312 58.125 116.570312 C 90.226562 116.570312 116.25 90.546875 116.25 58.445312 C 116.25 26.34375 90.226562 0.320312 58.125 0.320312 " fill-opacity="1" fill-rule="nonzero"/></g></g></g></g></svg>