<svg xmlns="http://www.w3.org/2000/svg" xmlns:xlink="http://www.w3.org/1999/xlink" width="500" zoomAndPan="magnify" viewBox="0 0 375 225" height="300" preserveAspectRatio="xMidYMid meet" version="1.0"><defs><g/><clipPath id="836b09fa7f"><path d="M 208.144531 60.328125 L 261.554688 60.328125 L 261.554688 129.398438 L 208.144531 129.398438 Z M 208.144531 60.328125 " clip-rule="nonzero"/></clipPath></defs><g fill="#ff9953" fill-opacity="1"><g transform="translate(18.312988, 138.53253)"><g><path d="M 58 -50.78125 C 53.476562 -50.78125 51.019531 -49.113281 50.703125 -45.625 L 44.910156 -14.441406 L 39.277344 -45.625 C 38.878906 -49.351562 36.261719 -50.78125 32.132812 -50.78125 C 27.929688 -50.78125 25.46875 -49.351562 25.074219 -45.625 L 19.597656 -15.3125 L 14.042969 -45.625 C 13.648438 -49.113281 11.1875 -50.78125 6.746094 -50.78125 C 2.9375 -50.78125 0.792969 -49.75 0.792969 -49.75 C 0.792969 -49.75 1.667969 -48.082031 1.984375 -45.148438 L 9.125 -4.523438 C 9.519531 -0.714844 12.933594 0.714844 18.011719 0.714844 C 23.167969 0.714844 25.867188 -0.714844 26.261719 -4.523438 L 32.214844 -37.132812 L 38.085938 -4.523438 C 38.480469 -0.953125 41.339844 0.714844 47.527344 0.714844 C 53.320312 0.714844 55.144531 -0.953125 55.621094 -4.523438 L 62.683594 -45.148438 C 63.078125 -48.082031 63.792969 -49.75 63.792969 -49.75 C 63.792969 -49.75 61.808594 -50.78125 58 -50.78125 Z M 58 -50.78125 "/></g></g></g><g fill="#ff9953" fill-opacity="1"><g transform="translate(82.897044, 138.53253)"><g><path d="M 10.316406 -42.847656 C 14.757812 -42.847656 17.136719 -44.75 17.136719 -48.558594 C 17.136719 -52.527344 14.757812 -54.273438 10.316406 -54.273438 C 5.949219 -54.273438 3.492188 -52.527344 3.492188 -48.558594 C 3.492188 -44.75 5.949219 -42.847656 10.316406 -42.847656 Z M 11.347656 0.714844 C 14.917969 0.714844 16.820312 -0.316406 16.820312 -0.316406 C 16.820312 -0.316406 16.1875 -1.347656 16.1875 -5 L 16.1875 -31.183594 C 16.1875 -34.992188 14.125 -36.417969 9.363281 -36.417969 C 5.792969 -36.417969 3.96875 -35.46875 3.96875 -35.46875 C 3.96875 -35.46875 4.523438 -34.4375 4.523438 -30.707031 L 4.523438 -4.679688 C 4.523438 -0.792969 6.585938 0.714844 11.347656 0.714844 Z M 11.347656 0.714844 "/></g></g></g><g fill="#ffd456" fill-opacity="1"><g transform="translate(103.597164, 138.53253)"><g><path d="M 19.28125 0.714844 C 30.628906 0.714844 36.023438 -2.855469 36.023438 -11.265625 C 36.023438 -17.375 32.691406 -20.3125 25.945312 -21.421875 L 19.042969 -22.535156 C 16.742188 -22.929688 15.710938 -24.042969 15.710938 -25.550781 C 15.710938 -27.691406 17.21875 -28.644531 21.183594 -28.644531 C 29.4375 -28.644531 33.402344 -25.390625 33.402344 -25.390625 C 33.402344 -25.390625 34.355469 -26.820312 34.355469 -29.832031 C 34.355469 -33.640625 30.628906 -36.5 18.882812 -36.5 C 8.648438 -36.5 4.046875 -32.691406 4.046875 -25.390625 C 4.046875 -19.597656 7.140625 -15.632812 14.597656 -14.519531 L 22.136719 -13.25 C 24.359375 -12.855469 25.46875 -11.980469 25.46875 -10.394531 C 25.46875 -8.015625 23.644531 -7.140625 19.757812 -7.140625 C 8.09375 -7.140625 4.285156 -11.347656 4.285156 -11.347656 C 4.285156 -11.347656 3.015625 -9.996094 3.015625 -6.902344 C 3.015625 -2.617188 6.824219 0.714844 19.28125 0.714844 Z M 19.28125 0.714844 "/></g></g></g><g fill="#ffd456" fill-opacity="1"><g transform="translate(142.633223, 138.53253)"><g><path d="M 37.769531 -17.773438 C 37.769531 -30.707031 32.214844 -36.5 20.867188 -36.5 C 9.996094 -36.5 3.015625 -30.707031 3.015625 -17.933594 C 3.015625 -5.15625 11.109375 0.714844 22.296875 0.714844 C 30.863281 0.714844 36.179688 -2.699219 36.179688 -7.300781 C 36.179688 -10.078125 35.148438 -11.1875 35.148438 -11.1875 C 35.148438 -11.1875 32.769531 -7.140625 26.34375 -7.140625 C 20.472656 -7.140625 16.664062 -9.757812 15.472656 -14.679688 L 34.277344 -14.679688 C 36.65625 -14.679688 37.769531 -15.949219 37.769531 -17.773438 Z M 21.183594 -28.644531 C 24.4375 -28.644531 26.582031 -26.820312 27.136719 -21.027344 L 15.074219 -21.027344 C 15.632812 -26.820312 18.011719 -28.644531 21.183594 -28.644531 Z M 21.183594 -28.644531 "/></g></g></g><g fill="#72d2cb" fill-opacity="1"><g transform="translate(183.413483, 138.53253)"><g><path d="M 6.425781 -49.988281 C 3.332031 -49.988281 1.824219 -50.621094 1.824219 -50.621094 C 1.824219 -50.621094 0.792969 -49.433594 0.792969 -46.335938 C 0.792969 -42.925781 2.539062 -41.257812 6.03125 -41.257812 L 16.742188 -41.257812 L 16.742188 -4.679688 C 16.742188 -0.792969 19.28125 0.714844 23.960938 0.714844 C 27.53125 0.714844 29.4375 -0.316406 29.4375 -0.316406 C 29.4375 -0.316406 28.882812 -1.347656 28.882812 -5 L 28.882812 -41.257812 L 39.117188 -41.257812 C 42.289062 -41.257812 43.796875 -40.703125 43.796875 -40.703125 C 43.796875 -40.703125 44.828125 -41.816406 44.828125 -44.988281 C 44.828125 -48.402344 43.003906 -49.988281 39.515625 -49.988281 Z M 6.425781 -49.988281 "/></g></g></g><g fill="#72d2cb" fill-opacity="1"><g transform="translate(229.034901, 138.53253)"><g><path d="M 10.316406 -42.847656 C 14.757812 -42.847656 17.136719 -44.75 17.136719 -48.558594 C 17.136719 -52.527344 14.757812 -54.273438 10.316406 -54.273438 C 5.949219 -54.273438 3.492188 -52.527344 3.492188 -48.558594 C 3.492188 -44.75 5.949219 -42.847656 10.316406 -42.847656 Z M 11.347656 0.714844 C 14.917969 0.714844 16.820312 -0.316406 16.820312 -0.316406 C 16.820312 -0.316406 16.1875 -1.347656 16.1875 -5 L 16.1875 -31.183594 C 16.1875 -34.992188 14.125 -36.417969 9.363281 -36.417969 C 5.792969 -36.417969 3.96875 -35.46875 3.96875 -35.46875 C 3.96875 -35.46875 4.523438 -34.4375 4.523438 -30.707031 L 4.523438 -4.679688 C 4.523438 -0.792969 6.585938 0.714844 11.347656 0.714844 Z M 11.347656 0.714844 "/></g></g></g><g fill="#b49cf4" fill-opacity="1"><g transform="translate(249.732834, 138.53253)"><g><path d="M 61.730469 -25.46875 C 61.730469 -32.847656 58.476562 -36.417969 51.019531 -36.417969 C 45.542969 -36.417969 41.257812 -34.199219 38.71875 -28.484375 C 37.925781 -33.800781 34.59375 -36.417969 28.246094 -36.417969 C 22.929688 -36.417969 18.726562 -34.355469 16.1875 -28.960938 L 16.1875 -31.183594 C 16.1875 -34.992188 14.042969 -36.417969 9.363281 -36.417969 C 5.792969 -36.417969 3.886719 -35.46875 3.886719 -35.46875 C 3.886719 -35.46875 4.523438 -34.4375 4.523438 -30.707031 L 4.523438 -4.679688 C 4.523438 -0.792969 6.585938 0.714844 11.265625 0.714844 C 14.835938 0.714844 16.742188 -0.316406 16.742188 -0.316406 C 16.742188 -0.316406 16.1875 -1.347656 16.1875 -5 L 16.1875 -13.410156 C 16.1875 -24.835938 18.882812 -28.167969 22.691406 -28.167969 C 25.785156 -28.167969 27.292969 -26.582031 27.292969 -23.484375 L 27.292969 -4.679688 C 27.292969 -0.792969 29.277344 0.714844 34.039062 0.714844 C 37.609375 0.714844 39.515625 -0.316406 39.515625 -0.316406 C 39.515625 -0.316406 38.957031 -1.347656 38.957031 -5 L 38.957031 -13.410156 C 38.957031 -24.835938 41.65625 -28.167969 45.464844 -28.167969 C 48.558594 -28.167969 49.988281 -26.582031 49.988281 -23.484375 L 49.988281 -4.679688 C 49.988281 -0.792969 52.050781 0.714844 56.8125 0.714844 C 60.300781 0.714844 62.285156 -0.316406 62.285156 -0.316406 C 62.285156 -0.316406 61.730469 -1.347656 61.730469 -5 Z M 61.730469 -25.46875 "/></g></g></g><g fill="#b49cf4" fill-opacity="1"><g transform="translate(315.903723, 138.53253)"><g><path d="M 37.769531 -17.773438 C 37.769531 -30.707031 32.214844 -36.5 20.867188 -36.5 C 9.996094 -36.5 3.015625 -30.707031 3.015625 -17.933594 C 3.015625 -5.15625 11.109375 0.714844 22.296875 0.714844 C 30.863281 0.714844 36.179688 -2.699219 36.179688 -7.300781 C 36.179688 -10.078125 35.148438 -11.1875 35.148438 -11.1875 C 35.148438 -11.1875 32.769531 -7.140625 26.34375 -7.140625 C 20.472656 -7.140625 16.664062 -9.757812 15.472656 -14.679688 L 34.277344 -14.679688 C 36.65625 -14.679688 37.769531 -15.949219 37.769531 -17.773438 Z M 21.183594 -28.644531 C 24.4375 -28.644531 26.582031 -26.820312 27.136719 -21.027344 L 15.074219 -21.027344 C 15.632812 -26.820312 18.011719 -28.644531 21.183594 -28.644531 Z M 21.183594 -28.644531 "/></g></g></g><g clip-path="url(#836b09fa7f)"><path fill="#72d2cb" d="M 180.972656 61.964844 L 174.765625 58.976562 C 175.238281 58.007812 175.722656 57.039062 176.234375 56.097656 L 182.300781 59.359375 C 181.839844 60.210938 181.398438 61.085938 180.972656 61.964844 Z M 206.179688 34.339844 L 202.636719 28.433594 C 201.71875 28.984375 200.804688 29.5625 199.910156 30.152344 L 203.714844 35.894531 C 204.523438 35.359375 205.351562 34.835938 206.179688 34.339844 Z M 302.828125 55.933594 C 302.316406 54.996094 301.78125 54.054688 301.226562 53.136719 L 295.324219 56.683594 C 295.820312 57.511719 296.308594 58.363281 296.769531 59.210938 Z M 276.363281 28.34375 C 275.445312 27.796875 274.5 27.257812 273.550781 26.75 L 270.292969 32.816406 C 271.148438 33.277344 272.003906 33.765625 272.832031 34.257812 Z M 267.789062 148.675781 L 270.777344 154.882812 C 271.738281 154.417969 272.707031 153.925781 273.652344 153.417969 L 270.378906 147.355469 C 269.527344 147.8125 268.65625 148.257812 267.789062 148.675781 Z M 176.289062 124.21875 C 176.796875 125.160156 177.335938 126.101562 177.882812 127.011719 L 183.789062 123.472656 C 183.292969 122.648438 182.8125 121.796875 182.347656 120.945312 Z M 293.816406 125.929688 L 299.558594 129.730469 C 300.15625 128.835938 300.730469 127.914062 301.28125 127 L 295.371094 123.460938 C 294.875 124.285156 294.351562 125.117188 293.816406 125.929688 Z M 202.722656 151.839844 C 203.636719 152.386719 204.585938 152.921875 205.527344 153.433594 L 208.796875 147.363281 C 207.941406 146.910156 207.089844 146.421875 206.261719 145.925781 Z M 242.519531 82.628906 L 242.519531 36.242188 C 242.519531 35.304688 241.121094 33.730469 239.398438 33.730469 C 237.675781 33.730469 236.277344 35.304688 236.277344 36.242188 L 236.277344 82.78125 C 237.285156 82.328125 238.40625 82.066406 239.582031 82.066406 C 240.621094 82.066406 241.609375 82.269531 242.519531 82.628906 Z M 276.191406 87.480469 L 247.171875 87.480469 C 247.457031 88.304688 247.621094 89.183594 247.621094 90.101562 C 247.621094 91.648438 247.175781 93.089844 246.417969 94.316406 L 276.191406 94.316406 C 278.082031 94.316406 279.613281 92.785156 279.613281 90.898438 C 279.613281 89.011719 278.082031 87.480469 276.191406 87.480469 Z M 239.585938 83.226562 C 235.789062 83.226562 232.710938 86.304688 232.710938 90.097656 C 232.710938 93.894531 235.789062 96.964844 239.585938 96.964844 C 243.378906 96.964844 246.453125 93.894531 246.453125 90.097656 C 246.453125 86.304688 243.378906 83.230469 239.585938 83.226562 Z M 320.621094 90.097656 C 320.621094 134.855469 284.339844 171.144531 239.585938 171.144531 C 194.828125 171.144531 158.542969 134.855469 158.542969 90.097656 C 158.542969 45.34375 194.828125 9.0625 239.585938 9.0625 C 284.339844 9.0625 320.621094 45.34375 320.621094 90.097656 Z M 312.910156 94.054688 L 302.214844 93.648438 C 302.277344 92.25 302.308594 90.84375 302.308594 89.433594 L 302.308594 89.222656 L 313.007812 89.222656 C 312.542969 49.296875 280.210938 17.03125 240.253906 16.671875 L 240.269531 27.578125 C 238.8125 27.585938 237.339844 27.617188 235.886719 27.683594 L 235.449219 16.785156 C 198.121094 18.855469 168.230469 48.804688 166.253906 86.152344 L 177.1875 86.5625 C 177.121094 87.996094 177.089844 89.433594 177.089844 90.859375 L 166.160156 90.964844 C 166.613281 130.246094 197.914062 162.113281 236.96875 163.480469 L 236.96875 152.824219 C 238.429688 152.824219 239.910156 152.789062 241.363281 152.726562 L 241.785156 163.496094 C 280.003906 162.375 310.894531 132.042969 312.910156 94.054688 Z M 312.910156 94.054688 " fill-opacity="1" fill-rule="nonzero"/></g></svg>